<?xml version="1.0" encoding="UTF-8" standalone="no"?><!DOCTYPE svg PUBLIC "-//W3C//DTD SVG 1.1//EN" "http://www.w3.org/Graphics/SVG/1.1/DTD/svg11.dtd"><svg width="100%" height="100%" viewBox="0 0 1657 1241" version="1.1" xmlns="http://www.w3.org/2000/svg" xmlns:xlink="http://www.w3.org/1999/xlink" xml:space="preserve" xmlns:serif="http://www.serif.com/" style="fill-rule:evenodd;clip-rule:evenodd;"><rect x="-47.592" y="-14.512" width="1717.19" height="1270.59" style="fill:#c8ebff;"/><rect x="1129.54" y="0" width="243.309" height="66.209" style="fill:#ccc;"/><path d="M1480.27,922.622c-0.219,-4.563 -5.5,-2.094 -8.562,-2.719c-3.532,-1.25 -6.907,3.5 -9.844,0.75c-4.063,-1.094 -3.719,-4.812 -2.719,-8.125c0,-0.031 -0.031,-0.031 -0.031,-0.062c3.812,-6.625 12.031,-14.719 16.437,-22.782c8.657,-9.093 5.907,-22.281 10.875,-33.156c-5,-3.406 -1.875,-8.156 -1.781,-13.469c7.656,-4.187 11.719,-11.906 18.938,-17.187c7.781,-7.438 14.968,-15 23.843,-21.563c10.063,-0.25 7.438,-14.062 13.125,-16.906c9.688,1.406 18.219,-21.687 23.344,-6.812c9.688,4.531 22.063,0.937 21.594,-11.563c1.312,0.781 11.875,7.063 15.719,9.875c-0.407,9.938 13.093,6.875 13.187,15.656c-3.5,11.657 8.313,17.438 17.688,11.844c1.906,-6.875 10.218,-8.687 12.031,-15.594c-6.813,-13.812 16.625,-15.187 16.812,-24.812c-6.562,-4.594 -6.468,-8.75 -0.75,-14.156c13.094,-7.219 -0.684,-12.894 10.535,-21.457c-1.347,319.022 0.668,2.541 0,322.244c-9.782,-0.719 -10.225,1.494 -19.819,-0.444c-8.438,-1.468 -20.625,-2.593 -23.594,7.438c-0.062,0.187 -0.125,0.344 -0.156,0.531c-13.25,0 -27.031,-0.25 -40.5,-0.125c-13.969,-1.062 -31.344,2.406 -44.719,-2.125c-4.375,-1.125 -7.156,-10.312 -8.562,-12.969l-0.532,-0.031c0.657,-11.594 3.219,-23.031 6.5,-34.187c2.125,-4.375 0.313,-9.969 3.875,-13.594c-2.906,-3.719 -5.437,-7.781 -8.937,-11c-4.375,-3.406 -5.906,-8.813 -9.469,-12.906c-2.5,-2.282 -2.781,-7.5 1.688,-7.282c3.656,-3.5 2.062,-9.218 1.968,-13.906c-2.343,-3.219 -5.875,-2.562 -9.343,-2.062c-2.344,1.468 -2.532,5.843 -7.094,5.093c-7.313,-1.843 -14.563,-5.125 -21.281,-8.781c-5.091,-6.906 -7.747,-15.5 -10.466,-23.656Z" style="fill:#fefee4;fill-rule:nonzero;"/><path d="M1585.48,768.997l0,0.031c-0.031,-0.031 -0.063,-0.062 -0.094,-0.062c0.031,0 0.031,0 0.094,0.031Z" style="fill:#fefee4;fill-rule:nonzero;"/><path d="M1486.42,966.966c1.469,1.468 3.157,3.468 2.407,5.687c-0.844,2.625 -3.188,4.313 -4.625,6.563c-1.688,2.375 -2.688,5.125 -4.157,7.625c-2.031,1.031 -2.093,3.281 -2.031,5.187c-0.406,2.156 -2.906,2.844 -3.437,4.875c-0.469,1.406 -1.907,3.094 -3.5,2.063c-1.844,-1.313 -4.188,-1.407 -6.375,-1.719c-1.969,-0.875 -4.813,-0.125 -6.094,-2.281c-1.281,-2.282 -1.75,-5.219 -0.625,-7.688c0.187,-1.969 2.125,-4 4.219,-3.375c1.625,0.438 5.156,0.656 4.25,-2.031c-0.313,-1.844 2,-2.156 2.25,-3.719c0.625,-2.344 -0.344,-5.062 1.312,-7.094c1,-1.406 2.25,-2.687 2.938,-4.312c0.875,-1.594 3.031,-1.281 3.906,0c3.094,0.562 6.281,-0.156 9.375,0.156l0.187,0.063Z" style="fill:#fefee4;fill-rule:nonzero;"/><path d="M1392.7,1095.31c0.031,-0.5 -0.063,-1.031 -0.407,-1.406c-0.312,-0.562 0.407,-1.219 0.938,-0.906c0.406,0.406 1.219,0.219 1.281,-0.375c-0.094,-0.5 -0.125,-1 0.063,-1.5c0.156,-0.563 -0.375,-1.125 -0.032,-1.688c0.094,-0.687 0.75,-0.75 1.313,-0.718c0.344,-0.282 0.594,-0.969 1.187,-0.625c0.282,0.125 0.469,0.468 0.813,0.437c0.531,0.438 1.219,-0.25 1.75,0.125c0.719,0.125 0.531,1.188 -0.156,1.219c-0.407,0.219 -1.438,0.5 -0.969,1.094c0.5,0.281 1.156,0.312 1.469,0.843c0.062,0.813 -0.938,0.688 -1.407,1c-0.75,0.313 -0.312,1.125 -0.25,1.719c-0.093,0.563 -0.093,1.188 -0.312,1.75c-0.375,0.344 -1.063,-0.281 -1.281,0.406c-0.344,0.375 0.25,0.813 -0.063,1.125c-0.531,0.094 -0.531,-0.718 -1.094,-0.468c-0.656,0.031 -0.843,-0.75 -1.437,-0.907c-0.375,-0.218 -0.688,-0.437 -1.094,-0.187c-0.562,0.094 -0.312,-0.594 -0.312,-0.938Z" style="fill:#fefee4;fill-rule:nonzero;"/><path d="M1356.77,1167.72c1.125,0.781 1.719,1.968 1.938,3.312c-0.219,1.347 -0.375,2.719 -0.625,4.031c-0.813,1.597 -2.657,2.282 -3.5,3.844c-0.344,1.281 -2.094,1.719 -2.063,3.156c-0.344,1.219 -2.125,0.938 -2.687,2.063c-1,0.187 -2.688,0 -2.282,1.562c0.032,0.938 -1.031,1.282 -1.687,0.938c-0.563,0.75 -1.969,1.281 -1.969,-0.125c-0.062,-1.094 1,-2.219 0.25,-3.25c-1.031,-0.625 -1.312,-1.844 -1.562,-2.934c-0.625,-1.754 -1.438,-3.535 -1.25,-5.438c-0.157,-0.972 0.281,-1.844 0.812,-2.659c0.469,-1.028 0.781,-2.278 1.875,-2.875c1,-0.907 2.125,-1.813 3.469,-2.06c1.344,-0.593 1.75,-2.378 3.312,-2.593c1.063,-0.16 2.25,-0.441 3.282,-0.066c1.031,0.934 2.156,1.75 2.687,3.094Z" style="fill:#fefee4;fill-rule:nonzero;"/><path d="M997.078,302.278c0.843,-3.656 3.062,-5.656 8.718,-2.906c2.657,0.5 5.625,0.187 7.813,-1.625l0.25,0c12.375,5.375 28.562,3.406 37.031,-7.906c5.781,-8.219 15.281,-9.594 24.531,-8.563c27,-1.125 54.063,-2.844 81.094,-1.469c3.969,-10.25 15.906,-0.937 24.188,-1.593c9.031,4.593 5.031,-10.219 13.656,-11.657c6.125,-5.906 17.969,-6.062 16.312,-18c5.938,-10.781 6.469,-24.375 17.344,-32.281c-0.125,-12.25 0.219,-24.625 4.094,-36.312c1.75,-40.719 3.156,-81.532 5.219,-122.25c29.468,-5.282 58.906,-10.844 88.375,-16.063c32.093,-26.375 28.209,-29.4 60.334,-55.744c146.712,2.844 84.953,3.697 277.316,5.832c0.031,0 8.093,424.843 0,425c-9.719,-8.219 -11.963,-13.682 -23.9,-16.963c-11.282,-1.781 -22.813,2.625 -34.063,-0.687c-12.125,-2.25 -23.25,5.375 -35.312,5.312c-14.594,3.188 -24.657,15.094 -33.938,25.906c-10.281,4.907 -23.187,-0.312 -34.594,-0.125c-11.625,-0.687 -22.968,-4.937 -30.687,-13.437c-13.344,-0.656 -19.719,-16.688 -34,-15.969c-12.063,-2.875 -20.969,8.563 -31.406,12.781c-6.313,-0.281 -13.625,-0.656 -17.469,6.032c-9.063,4.312 -17.438,-4.282 -20.375,-12.219c-3.813,-9.594 -11.844,-16.438 -19,-23.5c-8.156,-6.875 -19.344,-0.656 -28.313,-7.5c-10.093,-2.594 -19.406,-12.656 -30.187,-7.156c-7.969,11.406 -24.219,4.125 -34.781,5.093c-8,2.875 -18.344,1.344 -23.719,9.094c-6.438,6.594 -18.438,8.438 -14,20.594c-0.094,11.125 -5.719,21.281 -12.75,29.594c-6.5,6.656 -19.688,9.593 -16.656,21.5c-0.657,11.156 -1.532,22.093 -2.594,32.562c4.094,4.125 1.5,6.25 -1.688,5.969c-2.781,-0.219 -6.031,-2.25 -5.812,-6.281c-13.563,-2.625 -16.75,-16.844 -27.281,-24.594c-4.969,-7.719 -13.719,-11.969 -20.469,-4.031c-8.094,0.625 -22.031,2.75 -14.656,13.875c3.687,2.406 0.312,8.968 -1.594,8.968c-0.375,0 -0.719,-0.25 -0.906,-0.812c-5.688,-7.25 -10.094,-15.438 -15.813,-22.719c-4.844,-9.062 16.344,-2.844 8.656,-13.062c-0.656,-10.75 -14.968,-16.219 -20.781,-5.875c-12.375,4.187 -23.094,-5.032 -31.312,-13.563c-5,-7.094 -13.688,-8.281 -18.25,-14.187c0.5,-5.688 -1.625,-22.438 8,-14.282c4.843,-0.187 13.093,-1.875 3.875,-4.625c-10.157,-1.031 -10.657,-14.937 -22.094,-14.937c-3.438,-3.313 -12.281,-0.594 -10.719,-8c-5.562,-5.594 -10.375,-12.969 -11.719,-20.781c8.875,-12.657 -18.906,-17.782 -7.312,-31.188c1.125,-3.844 0.25,-10.781 1.344,-15.25Z" style="fill:#fefee4;fill-rule:nonzero;"/><path d="M1063.52,817.466c10.969,-1.438 5.438,-13.5 -0.156,-18.782c-8.563,-6.718 0.406,-16.812 -5.906,-24.875c7.375,-1.031 4.562,-10.062 5.187,-15.937c0.844,-11.656 0.594,-23.281 0.625,-34.938c0.563,-12.156 -0.5,-24.781 0.906,-36.531c-0.75,-10.156 -0.093,-20.312 -0.375,-30.5c2.438,-13.312 -14.375,-18.125 -13.312,-31.312c-3.688,-9.594 6.375,-27.5 -6.188,-34.157c-8.968,-6.343 -19.531,-11.562 -26.406,-20.187c-1.219,-13.031 6.438,-23.219 9.031,-35.438l-0.156,-0.343c1.406,-0.594 2.469,-1.75 3.094,-3.688c3.969,-0.937 10.031,5.875 6.156,-3.906c6.625,-0.594 1.969,-7.344 7.031,-7.938c5.282,4.313 3.875,-3.593 7.688,-1.375c-0.969,4.813 9.25,-15.25 15.031,-7.125c8.25,1.313 17.094,-1.968 25.781,-0.843c8.532,-8.219 19.813,-14.469 22.688,-27l-0.125,-1.032c1.906,0 5.281,-6.562 1.594,-8.968c-7.375,-11.125 6.562,-13.25 14.656,-13.875c6.75,-7.938 15.5,-3.688 20.469,4.031c10.531,7.75 13.718,21.969 27.281,24.594c-0.219,4.031 3.031,6.062 5.812,6.281l-0.375,1.719c-4.593,6.468 -10.875,15.375 -3.437,22.281c7,8.25 13.656,18.219 10.531,29.281c5.844,6.969 6.938,16.063 1.375,23.563c-5.656,-3.282 -11.25,2.156 -11.531,8.281c4.5,5.187 6.125,10.094 1.156,15.531c0.781,11.844 -12.937,7.5 -16.937,14.469c4.375,6.625 -4.407,6.437 -5.344,11.562c-8.219,5.032 -3.969,12.907 -6.438,20.438c0.25,15.156 -19.25,3.594 -21.75,14.875c-1.656,9.125 -2.812,18.062 -2.031,27.469c-4.687,11.218 0.688,22.968 -4.312,34.625c4.281,8.656 -1,18.093 5.406,25.843c-5.313,9.594 1.375,22.25 -4.281,30.625c4,12.438 0.062,25.969 -1.532,38.782l0.032,0.406c-9.844,0.5 -19.594,2.5 -29.469,2.75c-11.094,-0.188 -21.875,2.312 -32.531,5.125l-0.125,-0.531l-0.5,-2.438l1.687,-0.812Z" style="fill:#fefee4;fill-rule:nonzero;"/><path d="M815.89,622.934c-0.187,0.063 -0.531,-0.125 -1.062,-0.593c-6.313,11.281 -12.657,-6.782 -14.969,-12.657c-5.031,-1.687 -12.406,-9.937 -13.938,-12.562c0.157,-0.125 0.344,-0.281 0.5,-0.469c-0.875,-0.625 -0.968,-0.344 -0.5,0.469c-5.437,4.75 -11.968,-5.656 -19.437,-2.063c-8.688,-3.031 -18.469,0.969 -25.719,5.532c-8.312,-0.5 -16.406,4.125 -18.812,12.406c-5.25,1.344 -2.469,0.125 -8.219,-2.563c-4.5,0.219 -1.781,-8.531 -6.813,-2.968c-6.062,0.343 -5.187,2.875 -10.093,-3.344c-0.438,-0.438 -0.875,-0.813 -1.313,-1.125c0.719,-7.25 -14.031,-4.5 -9.875,-13.906c-4.969,-9.313 -2.656,-2.313 -6.156,-10.344c-0.594,-3.969 -4.844,-11.063 -12.875,-8.031c-7.156,1.406 -10.094,-2.813 -10.531,-8.094c-0.344,-3.969 0.718,-8.531 2.468,-11.75c2.188,-8.063 4.5,-15.781 0.094,-23.844c2.75,-5.5 13.406,-3.687 13.688,-12.844c1.406,-8.656 6.843,-16.75 0.062,-24.031c1.938,-2.844 0.219,-8.094 -1.687,-10.719c7.437,-2 12.062,-10.562 20.812,-9.281c9.188,0.344 22.469,-2.844 24.313,-12.406c0.843,-1.375 6.562,-6.719 8.656,-7.813c0.094,0.344 0.219,0.657 0.344,1c0.687,-1.218 0.437,-1.406 -0.344,-1c-2.281,-7.781 5.906,-13.187 -2.313,-19.562c1.032,-8.094 18.407,2.125 15.875,-10.281c1.594,-8.25 -13.593,-18.375 -0.218,-20.907c2.218,-4.937 11.468,-13.062 16.125,-17.031c6.187,2.594 -4.282,6.688 3.875,7.125c9.312,-0.812 17.843,18.969 25.468,9.531c0,-7.562 14.469,1.032 11.157,-10c-1.688,-4.812 4.406,-17.562 2.5,-17.937c6.656,0.656 14.562,9.156 18.781,0.531c-2.438,-11.156 4.594,-22.562 15.031,-26.781c8.594,-14.281 22.531,-2.188 33.375,0.125c8.906,-4 -0.25,-23 14.313,-19c11.375,1.531 19.218,-8.781 28.75,-12.969c13.906,-1.969 24.75,-10.25 34.718,-19.812c7.282,-3.157 16.532,-0.844 22.407,2.593c7.25,-5.687 12.968,-0.187 20.156,2.032c4.187,1.562 8.406,3.125 12.594,4.687c-1.094,4.469 -0.219,11.406 -1.344,15.25c-11.594,13.406 16.187,18.531 7.312,31.188c1.344,7.812 6.157,15.187 11.719,20.781c-1.562,7.406 7.281,4.687 10.719,8c11.437,0 11.937,13.906 22.094,14.937c9.218,2.75 0.968,4.438 -3.875,4.625c-9.625,-8.156 -7.5,8.594 -8,14.282c4.562,5.906 13.25,7.093 18.25,14.187c8.218,8.531 18.937,17.75 31.312,13.563c5.813,-10.344 20.125,-4.875 20.781,5.875c7.688,10.218 -13.5,4 -8.656,13.062c5.719,7.281 10.125,15.469 15.813,22.719c0.187,0.562 0.531,0.812 0.906,0.812l0.125,1.032c-2.875,12.531 -14.156,18.781 -22.688,27c-8.687,-1.125 -17.531,2.156 -25.781,0.843c-5.781,-8.125 -16,11.938 -15.031,7.125c-3.813,-2.218 -2.406,5.688 -7.688,1.375c-5.062,0.594 -0.406,7.344 -7.031,7.938c3.875,9.781 -2.187,2.969 -6.156,3.906c-0.625,1.938 -1.688,3.094 -3.094,3.688c-5.375,2.437 -15.406,-2.625 -21,2.437c-8.781,-6.375 -22.469,-6.594 -33.687,-9.906c-2.125,-0.156 -4.344,-0.875 -6.438,-1.5c-4.406,-1.344 -8.312,-2.344 -9.906,2.75c-6.688,-2.156 -8.781,6.781 -15.781,7.719c-3.844,5.531 -6.969,-7.5 -13.532,-2.25c-8.812,-2.032 -18,-0.438 -27.062,-0.782c-12.5,-3.75 -24.844,1.188 -37.75,-0.562c-14.469,-0.031 -29.125,-0.969 -43.5,-0.219c-10.063,-3.25 -7.188,9.125 -12.313,14.688c-3.312,7.343 1.094,16.031 6.219,20.125c-8.5,4.812 5.188,9.562 -1.437,16.25c0.75,8.062 3.875,16.875 -0.407,24.75c1.719,4.25 7,14.687 5.719,14.968Z" style="fill:#fefee4;fill-rule:nonzero;"/><path d="M986.109,615.966c0.125,0.031 0.281,0.093 0.5,0.187c-0.219,-0.062 -0.375,-0.125 -0.5,-0.187Z" style="fill:#fefee4;fill-rule:nonzero;"/><path d="M984.109,624.778c8.875,-0.656 -6.25,-6.094 3.594,-5.906c4.75,-0.344 0.656,-2.094 -1.094,-2.719c-2.406,-4.937 8.687,-0.562 4.125,-8.562c0.156,-9.5 5.469,-17.032 1.656,-25.969c5.844,-7.781 -5.812,-11.625 -10,-14.844c-2.812,-8.812 -20.656,-10.344 -10.969,-21.594c2.125,-5.812 9.532,-19.812 -2.812,-17c-1.438,-0.125 -2.625,-1.218 -3,-2.593l0.031,-0.094c2.094,0.625 4.313,1.344 6.438,1.5c11.218,3.312 24.906,3.531 33.687,9.906c5.594,-5.062 15.625,0 21,-2.437l0.156,0.343c-2.593,12.219 -10.25,22.407 -9.031,35.438c6.875,8.625 17.438,13.844 26.406,20.187c12.563,6.657 2.5,24.563 6.188,34.157c-1.063,13.187 15.75,18 13.312,31.312c0.282,10.188 -0.375,20.344 0.375,30.5c-1.406,11.75 -0.343,24.375 -0.906,36.531c-0.031,11.657 0.219,23.282 -0.625,34.938c-0.625,5.875 2.188,14.906 -5.187,15.937c6.312,8.063 -2.657,18.157 5.906,24.875c5.594,5.282 11.125,17.344 0.156,18.782l-1.687,0.812l0.5,2.438l0.125,0.531c-1.844,0.469 -3.688,0.969 -5.532,1.469c-6.687,1.593 -13.156,3.781 -19.406,6.562l-0.25,-0.562c-0.781,-8.219 -12.5,-7.438 -12.969,-14.875c-7.843,-3.563 -16.406,-8.782 -16.906,-17.657c-5.594,-3.281 -3.719,-11.031 -9.406,-15.062c2.5,-5.25 -4.063,-8.781 4.031,-10.781c-1.125,-7.782 9.656,-22.344 -3.125,-22.969c-6.219,-9.719 8.719,-16.656 5.063,-27.375c-0.032,-8.875 -4.532,-20.844 6.093,-24.813c2.063,-13.406 -18.781,-15.437 -17.375,-28.687c10.125,-1.563 5.063,-11.188 4.157,-17.406c2.781,-7.813 11.093,-23.625 -2.25,-25.688c-3.063,0.344 -9.407,8.375 -10.469,1.375Z" style="fill:#fefee4;fill-rule:nonzero;"/><path d="M789.484,891.216c-2.719,-0.719 -5.438,-1.469 -8.188,-2.188l0.063,-0.187c4.594,-8.875 27.75,7.125 22.062,-13.438c-3.093,-6.969 6.125,-7 1.5,-13.625c0.907,-8.656 -5.312,-10.719 -12,-10.531c0.063,-4.906 -5.937,-6.375 -2.812,-12.563c-3.531,-12.687 -8.281,-24.75 -11.094,-37.687c-1.062,-12.563 0.219,-24.219 8.563,-34.531c9.062,-4.407 6.187,-15.625 8.968,-23.75c0.907,-8.563 4.594,-16.407 9.407,-23.469c0.843,-9.594 14.312,-8.938 13,-18.969c10.375,-2.875 1.125,-18.25 2.187,-26.781c-1.656,-8.438 -1.562,-15.906 -6.156,-23.531c-12.406,-3.188 4.156,-12.313 -0.781,-18.469c1.625,-2.625 2.687,-5.719 1.687,-8.563c1.281,-0.281 -4,-10.718 -5.719,-14.968c4.282,-7.875 1.157,-16.688 0.407,-24.75c6.625,-6.688 -7.063,-11.438 1.437,-16.25c-5.125,-4.094 -9.531,-12.782 -6.219,-20.125c5.125,-5.563 2.25,-17.938 12.313,-14.688c14.375,-0.75 29.031,0.188 43.5,0.219c12.906,1.75 25.25,-3.188 37.75,0.562c9.062,0.344 18.25,-1.25 27.062,0.782c6.563,-5.25 9.688,7.781 13.532,2.25c7,-0.938 9.093,-9.875 15.781,-7.719c1.594,-5.094 5.5,-4.094 9.906,-2.75l-0.031,0.094c0.375,1.375 1.562,2.468 3,2.593c12.344,-2.812 4.937,11.188 2.812,17c-9.687,11.25 8.157,12.782 10.969,21.594c4.188,3.219 15.844,7.063 10,14.844c3.813,8.937 -1.5,16.469 -1.656,25.969c4.562,8 -6.531,3.625 -4.125,8.562c-0.219,-0.094 -0.375,-0.156 -0.5,-0.187c0.125,0.062 0.281,0.125 0.5,0.187c1.75,0.625 5.844,2.375 1.094,2.719c-9.844,-0.188 5.281,5.25 -3.594,5.906c1.062,7 7.406,-1.031 10.469,-1.375c13.343,2.063 5.031,17.875 2.25,25.688c0.906,6.218 5.968,15.843 -4.157,17.406c-1.406,13.25 19.438,15.281 17.375,28.687c-10.625,3.969 -6.125,15.938 -6.093,24.813c3.656,10.719 -11.282,17.656 -5.063,27.375c12.781,0.625 2,15.187 3.125,22.969c-8.094,2 -1.531,5.531 -4.031,10.781c5.687,4.031 3.812,11.781 9.406,15.062c0.5,8.875 9.063,14.094 16.906,17.657c0.469,7.437 12.188,6.656 12.969,14.875l0.25,0.562c-0.25,0.094 -0.5,0.188 -0.75,0.313c-3,2.781 -5.156,6.718 -7.844,9.937c-2.468,2.344 -3.406,7.125 -7.093,7.563c-3.188,-0.063 -7.344,3.187 -9.657,-0.063c-0.843,-3.75 -7.843,-0.969 -6.937,-1.531c0.156,-1.156 -2.906,-3 -2.094,-4.75c1,-4.688 -2.781,-8.906 -6.719,-10.906c-1.75,-2.219 -4.906,-3.657 -7.718,-3.157c-0.75,2.688 -2.938,1.875 -5.032,1.563c-1.562,-1.531 -3.875,-4.5 -6.218,-2.313c2.593,-0.437 4.468,2.969 6.906,3.532c2.875,2.562 3.812,-1.938 6.094,-2.188c1.656,1.594 4.218,1.469 5.25,3.656c2.812,0.657 5.031,2.657 5.843,5.375c1.969,2.157 0,4.657 0.719,6.907c0.281,2.062 2.469,2.906 -1.156,3.375c-8.156,0.562 -16.188,1.781 -24.031,4.156c-17.594,7.906 -34.438,17.562 -50.719,27.875c-11.188,2.406 -22.563,4.719 -33.719,7.531c-4.75,1.625 -10.437,2.188 -13.937,6.125c-7.5,8.125 -18.125,12.031 -27.969,16.531c-11.906,-4.343 -23.219,-10.312 -35.375,-13.937c-8.438,-2.125 -17.219,-2.719 -25.875,-3.656Z" style="fill:#fefee4;fill-rule:nonzero;"/><path d="M785.921,597.122c-0.468,-0.813 -0.375,-1.094 0.5,-0.469c-0.156,0.188 -0.343,0.344 -0.5,0.469Z" style="fill:#fefee4;fill-rule:nonzero;"/><path d="M724.484,449.934c0.781,-0.406 1.031,-0.218 0.344,1c-0.125,-0.343 -0.25,-0.656 -0.344,-1Z" style="fill:#fefee4;fill-rule:nonzero;"/><path d="M695.515,602.997c0,0.437 -0.125,0.937 -0.281,1.469c-4.375,-3.719 -2.469,-3.688 0.281,-1.469Z" style="fill:#fefee4;fill-rule:nonzero;"/><path d="M670.703,479.434c-1,0.25 -2.032,0.375 -3.157,0.375c0.219,-2.875 1.719,-2.343 3.157,-0.375Z" style="fill:#fefee4;fill-rule:nonzero;"/><path d="M512.39,823.216c-0.125,0.187 -0.312,0 -0.531,-0.75c0.187,0.218 0.344,0.468 0.531,0.75Z" style="fill:#fefee4;fill-rule:nonzero;"/><path d="M478.015,730.622c4.406,0.25 10.063,-1.5 14.281,2.469c6.938,-6.532 6.594,-14.844 8.75,-22.688c-1.75,-7.344 11.094,-3.812 5.563,-8.75c3.906,-10.687 -17.469,-2.469 -12.688,-14.375c-3.593,-11.344 9.532,-13.344 17.188,-9.281c2.531,7.719 7.375,-3.563 8.344,2.469c6.687,10.5 8.687,-3.782 6.281,-9.438c0.875,-11.344 -17.25,-7.594 -14.125,-17.281c-2.875,-8.813 12.562,-9.781 10.469,-14.156c-10.157,-2.875 -7.438,-9.875 -4.094,-17.25c1.844,-2.375 -11.344,4.875 -15.5,-6.782c0.469,-10.187 2.281,-20.062 1.25,-29.406l0.031,0c2.25,-4.25 8.875,-4.562 9.844,-9.75l1.906,-0.781c0.656,1.375 2.156,1.562 5.75,-0.906c5.625,-4.594 7.438,-17.157 17.313,-13.313c7.406,-7.125 9.75,18.094 10.531,6.844c3.406,7.375 15.75,2.562 20.062,10.344c5.844,-3.063 -1.281,-14.407 9.844,-12.782c6.094,1.657 15.531,0.782 9.781,-7.625c-0.875,-5.218 3.25,-13.906 7.094,-5.718c5.219,4.625 11.719,0.937 8.469,-4.782c7.031,-6.437 16.156,0.25 10.031,7.782c4.031,4.093 3.813,11.062 -0.156,16.187c6.594,11 18.781,1.656 20.937,-5.969c5.5,-2.625 13.75,-5.5 19.719,-3l1.188,-0.062c0.437,5.281 3.375,9.5 10.531,8.094c8.031,-3.032 12.281,4.062 12.875,8.031c3.5,8.031 1.187,1.031 6.156,10.344c-4.156,9.406 10.594,6.656 9.875,13.906c-2.75,-2.219 -4.656,-2.25 -0.281,1.469c0.156,-0.532 0.281,-1.032 0.281,-1.469c0.438,0.312 0.875,0.687 1.313,1.125c4.906,6.219 4.031,3.687 10.093,3.344c5.032,-5.563 2.313,3.187 6.813,2.968c5.75,2.688 2.969,3.907 8.219,2.563c2.406,-8.281 10.5,-12.906 18.812,-12.406c7.25,-4.563 17.031,-8.563 25.719,-5.532c7.469,-3.593 14,6.813 19.437,2.063c1.532,2.625 8.907,10.875 13.938,12.562c2.312,5.875 8.656,23.938 14.969,12.657c0.531,0.468 0.875,0.656 1.062,0.593c1,2.844 -0.062,5.938 -1.687,8.563c4.937,6.156 -11.625,15.281 0.781,18.469c4.594,7.625 4.5,15.093 6.156,23.531c-1.062,8.531 8.188,23.906 -2.187,26.781c1.312,10.031 -12.157,9.375 -13,18.969c-4.813,7.062 -8.5,14.906 -9.407,23.469c-2.781,8.125 0.094,19.343 -8.968,23.75c-8.344,10.312 -9.625,21.968 -8.563,34.531c2.813,12.937 7.563,25 11.094,37.687c-3.125,6.188 2.875,7.657 2.812,12.563c6.688,-0.188 12.907,1.875 12,10.531c4.625,6.625 -4.593,6.656 -1.5,13.625c5.688,20.563 -17.468,4.563 -22.062,13.438l-0.063,0.187c-7.968,-2.125 -15.968,-4.125 -24.156,-5.344c-7.062,-0.593 -13.062,-6.187 -20.25,-5.156c-13.031,0.313 -26,1.406 -38.875,3.281c-14.906,2.188 -30.094,2.844 -44.781,6.375c-7.375,-1.562 -14.531,1.813 -21.719,3.157c-7.687,1.062 -14.125,5.406 -20.875,8.875c-14,4.156 -27.656,9.5 -41.219,14.968c-8.218,5.532 -18.125,7.875 -26.25,13.594c-4.25,3.688 -10.031,2.469 -15.125,3.563l-0.031,-0.282l-1,-3.406l-2.156,-1.187c1.812,-11.344 -3.313,-27.219 1.187,-36.782c-3.156,-6.906 2.75,-8.593 4.75,-14.062c-1.187,-7.281 3.032,-5.094 5.969,-8.219c-6.781,-6.469 3.063,-15.656 -2.719,-23.562c4.094,-9.938 -5.718,-6.907 -11.031,-12.75c-6.187,1.687 -8.437,-5.344 -10.625,-8.875c0.594,-1.032 -0.875,-13.375 -8.312,-14.063c-8.719,1.25 -18.157,-1.25 -24.938,-5.531c0.25,-6.719 0.688,-5.875 -4.719,-4.188c-11.437,-2.906 -0.656,-8.875 3.813,-13.25c8.687,-6.593 7.281,-18.281 8.656,-27.781c-5.031,-8.031 -4.219,-18.219 -8.969,-26l0.094,-1.781Z" style="fill:#fefee4;fill-rule:nonzero;"/><path d="M479.14,803.622c6.781,4.281 16.219,6.781 24.938,5.531c7.437,0.688 8.906,13.031 8.312,14.063c-0.187,-0.282 -0.344,-0.532 -0.531,-0.75c0.219,0.75 0.406,0.937 0.531,0.75c2.188,3.531 4.438,10.562 10.625,8.875c5.313,5.843 15.125,2.812 11.031,12.75c5.782,7.906 -4.062,17.093 2.719,23.562c-2.937,3.125 -7.156,0.938 -5.969,8.219c-2,5.469 -7.906,7.156 -4.75,14.062c-4.5,9.563 0.625,25.438 -1.187,36.782l2.156,1.187l1,3.406l0.031,0.282c-0.75,0.156 -1.468,0.343 -2.156,0.625c-17.656,-8.157 -35.937,-14.907 -54.406,-20.875c-9.031,-5.875 -18.188,-11.719 -26.656,-18.469c-7.75,-5.375 -14.313,-12.125 -20.782,-18.969c-14.625,-14.281 -26.843,-31.031 -43.312,-43.375c-5.594,-5.469 -13.031,-7.844 -19.781,-11.406c-6.657,-2.438 -9.469,-9.625 -15.407,-13.156c-3.312,-3.532 -7.843,-4.719 -12.437,-5.532c-3.969,0.125 -5.969,-3.125 -8.313,-5.75c-3.187,-0.343 -6.062,-3.687 -5.562,-6.593c5,-0.282 2.844,-5.032 -0.625,-6.157c-6.313,-3.343 -10.188,-9.781 -16.344,-13.187l0.219,-0.375c10.156,-3.813 8.219,-20.5 20.562,-22.938c5.094,-10.5 18.907,-11.312 24.125,-21.656c5.657,-5.719 12.157,-10.344 9.532,-19.562c1.375,-12.782 21.531,-5.063 18.343,-19.782c-0.187,-3.75 3.157,-6.406 2.469,-10.25l-0.062,-0.625c3.375,-0.343 6.906,-0.437 10.062,-1.5c2.094,9.625 8.156,1.532 15.281,1.219c4.375,-5.031 4.657,-0.5 6.219,4.094c4.094,-2.594 5,-1.438 3.563,2.687c6.187,-1.656 10.468,3.688 7.437,10.219c2.563,1.563 2.25,0.281 2.781,6.688c-1.906,6.875 4.438,2.531 1.282,9.843c1.281,9.813 6.312,21.5 -2.313,30.844c-5.469,8.094 5.219,-1.562 9.219,3.594c7.094,1.5 8.625,17.812 17.5,7.625c6.281,2.219 7.469,-2.313 9.25,-7.594c8.594,-3.594 2.906,-19.031 13.625,-18.062c0.875,5.25 3.437,6.5 6.656,6.656l-0.094,1.781c4.75,7.781 3.938,17.969 8.969,26c-1.375,9.5 0.031,21.188 -8.656,27.781c-4.469,4.375 -15.25,10.344 -3.813,13.25c5.407,-1.687 4.969,-2.531 4.719,4.188Z" style="fill:#fefee4;fill-rule:nonzero;"/><path d="M352.109,683.997c-0.156,0.344 -0.344,0.656 -0.531,0.969c-2.625,-1.157 -1.75,-1.188 0.531,-0.969Z" style="fill:#fefee4;fill-rule:nonzero;"/><path d="M322.671,452.747c0.032,0.031 0.063,0.062 0.094,0.094c-0.062,0.531 -0.094,1 -0.125,1.437c0,-0.437 0.031,-0.937 0.031,-1.531Z" style="fill:#fefee4;fill-rule:nonzero;"/><path d="M322.609,454.841c-0.063,2.75 -0.156,2.156 0,0Z" style="fill:#fefee4;fill-rule:nonzero;"/><path d="M238.078,733.622l6.437,-2.594l4.938,2.781l1.25,-0.687l-3.438,7.344l-5.75,0.468l-6.719,-2.656l-3,-4.781l6.282,0.125Z" style="fill:#fefee4;fill-rule:nonzero;"/><path d="M211.828,636.747c3.062,-2.719 9.593,5.5 13.593,-4.531c-0.593,-9.969 8.625,-6.25 13.094,-12.438c7.188,-9.375 13.281,-20.219 18.25,-31.187c10.094,-8.344 27.188,7.937 33.031,-6.563c12.438,0.406 25.032,0.25 37.313,0.781c6.906,7.375 13.594,16.157 18.75,25.719c-0.813,10 14.219,12.469 10.281,22.031c-7.937,5.25 -0.594,8.438 4.781,10.438c-2.5,7.937 -0.093,16.062 5.25,22.25c-7.312,5.062 -9.843,13.219 -14.062,20.75c-2.281,-0.219 -3.156,-0.188 -0.531,0.969c0.187,-0.313 0.375,-0.625 0.531,-0.969c3.687,0.344 11,1.219 12.937,-1.438c2.313,-6.5 7.157,-7.687 12.407,-8.25l0.062,0.625c0.688,3.844 -2.656,6.5 -2.469,10.25c3.188,14.719 -16.968,7 -18.343,19.782c2.625,9.218 -3.875,13.843 -9.532,19.562c-5.218,10.344 -19.031,11.156 -24.125,21.656c-12.343,2.438 -10.406,19.125 -20.562,22.938l-0.219,0.375c-0.5,-0.281 -1,-0.531 -1.531,-0.75c-12.906,-7.406 -26.781,-12.781 -40.125,-19.344c-4.438,-1.125 -5.75,-6.062 -5.875,-10.094c0.281,-5.062 -5,-7.5 -7.625,-11.218c-3.938,-5.625 -11.344,-7.344 -14.688,-13.5c-0.937,-4.375 -0.437,-9.282 -0.843,-13.875c-1.657,-2.157 -4.344,-5.407 -7.188,-5.969c-3.687,0.125 -7.781,0.719 -7,-4.313c-1.625,-5.437 0.5,-11.125 4.188,-15.218c3.593,-3.25 -2.657,-4.875 -4.657,-6.688c-0.312,-3.781 -2.093,-7.625 -0.75,-11.344c2.032,-4.125 -0.343,-8.187 -3.062,-11.25c0.344,-3.375 -0.75,-6.031 -1.688,-9.062l0.407,-0.125Z" style="fill:#fefee4;fill-rule:nonzero;"/><path d="M322.609,454.841c-0.156,2.156 -0.063,2.75 0,0Zm-97.188,177.375c-4,10.031 -10.531,1.812 -13.593,4.531l-0.407,0.125c-0.156,-0.469 -0.312,-0.969 -0.437,-1.469c-0.563,-5.781 -5.563,-9.25 -7.719,-14.375c-2.187,-5.062 -9.094,-7.375 -8.812,-13.5c0.406,-4.156 -3.188,-5.875 -6,-8.062c-3.782,-6.157 -8.844,-11.188 -14,-16.157c-5.875,-1.187 -10.157,-5.25 -14.782,-8.718c-2.781,-2.938 -7.531,-3.875 -9.375,-7.5c-3.75,-6.532 -6.437,-13.75 -6.125,-21.375c-0.718,-3.094 3.157,-8.438 -2.375,-7.063c-3.062,-0.281 -8.031,-1.437 -6.343,-5.469c-1.344,-4.406 -1.532,-8.843 -0.25,-13.281c-4.344,-0.125 -5.938,4.531 -8.5,7.281c-1.532,3.5 -4.25,5.282 -8.032,5.563c-2.125,-2.688 -4.593,-5.125 -6.156,-8.188c0.188,-0.5 0.313,-1 0.438,-1.5c9.156,-6.625 14.375,-19.468 19.312,-28.968c5.375,-12.344 21.563,-5.032 29.406,-15.719c6.75,-2.719 21.938,5.812 24.75,-5.094c8.688,8.938 6.875,-14.437 7.344,-17.375c0.156,0.125 0.313,0.281 0.469,0.406c-0.25,-0.843 -0.406,-0.906 -0.469,-0.406c-4.812,-3.937 -17.469,-9.562 -6.437,-13.375c4,-3.062 10.75,3.156 12.531,-5.406c4.062,-7.313 -3.906,-13.188 -1.094,-19.875c12.281,0.625 25.656,1.219 36.531,4.719c-2.718,6.562 3.032,12.75 7.282,5c5.031,4.25 13.437,6.125 19.281,10.25c7.937,-4.063 10.906,6.843 18.531,3.093c8.969,-6.312 19.656,-2.875 29.594,-2.656c3.906,-3.75 10.062,-1.437 14.656,-1.437l2.563,2.031c-2.813,2.781 -3.969,10.062 -4.438,14.594c-0.031,-0.032 -0.062,-0.063 -0.094,-0.094c0,0.594 -0.031,1.094 -0.031,1.531c0.031,-0.437 0.063,-0.906 0.125,-1.437c5.656,5.406 14.594,14.343 19.906,3.156c5.5,-13.156 19.282,-3.313 18.813,7.031c6.875,15.156 13.562,-9.75 23.25,-10.031c9.156,-6.219 19.281,3.531 27.875,6.812c10.281,8.25 11.562,-7.437 20.187,-8.062c6.282,-2.313 19.063,-4.188 9.938,-12.688c0,-8.75 18.125,-2.093 21.875,3.5c1.219,5.25 -2.438,10.282 3.969,13.25c-4.375,8.094 10.062,9.313 4.468,18.25c-2.437,5.938 -4.718,13.688 4.219,13.407c1.031,9.75 12.656,10.093 17.188,16.625c-2.438,1.406 3.937,4.343 -2.063,5c-6.937,0.343 -13.625,11.593 -15.687,18.062c7.343,3.094 16.093,-12.156 21.406,-0.437c0,10.75 -6.219,28.5 6.094,34.375c8.531,5.218 -2.594,2.187 9.968,6c1,2.656 0.407,6.687 1.344,8.531l-1.906,0.781c-0.969,5.188 -7.594,5.5 -9.844,9.75l-0.031,0c1.031,9.344 -0.781,19.219 -1.25,29.406c4.156,11.657 17.344,4.407 15.5,6.782c-3.344,7.375 -6.063,14.375 4.094,17.25c2.093,4.375 -13.344,5.343 -10.469,14.156c-3.125,9.687 15,5.937 14.125,17.281c2.406,5.656 0.406,19.938 -6.281,9.438c-0.969,-6.032 -5.813,5.25 -8.344,-2.469c-7.656,-4.063 -20.781,-2.063 -17.188,9.281c-4.781,11.906 16.594,3.688 12.688,14.375c5.531,4.938 -7.313,1.406 -5.563,8.75c-2.156,7.844 -1.812,16.156 -8.75,22.688c-4.218,-3.969 -9.875,-2.219 -14.281,-2.469c-3.219,-0.156 -5.781,-1.406 -6.656,-6.656c-10.719,-0.969 -5.031,14.468 -13.625,18.062c-1.781,5.281 -2.969,9.813 -9.25,7.594c-8.875,10.187 -10.406,-6.125 -17.5,-7.625c-4,-5.156 -14.688,4.5 -9.219,-3.594c8.625,-9.344 3.594,-21.031 2.313,-30.844c3.156,-7.312 -3.188,-2.968 -1.282,-9.843c-0.531,-6.407 -0.218,-5.125 -2.781,-6.688c3.031,-6.531 -1.25,-11.875 -7.437,-10.219c1.437,-4.125 0.531,-5.281 -3.563,-2.687c-1.562,-4.594 -1.844,-9.125 -6.219,-4.094c-7.125,0.313 -13.187,8.406 -15.281,-1.219c-3.156,1.063 -6.687,1.157 -10.062,1.5c-5.25,0.563 -10.094,1.75 -12.407,8.25c-1.937,2.657 -9.25,1.782 -12.937,1.438c4.219,-7.531 6.75,-15.688 14.062,-20.75c-5.343,-6.188 -7.75,-14.313 -5.25,-22.25c-5.375,-2 -12.718,-5.188 -4.781,-10.438c3.938,-9.562 -11.094,-12.031 -10.281,-22.031c-5.156,-9.562 -11.844,-18.344 -18.75,-25.719c-12.281,-0.531 -24.875,-0.375 -37.313,-0.781c-5.843,14.5 -22.937,-1.781 -33.031,6.563c-4.969,10.968 -11.062,21.812 -18.25,31.187c-4.469,6.188 -13.687,2.469 -13.094,12.438Z" style="fill:#fefee4;fill-rule:nonzero;"/><path d="M203.109,194.247c-0.156,-0.125 -0.313,-0.25 -0.469,-0.375c0.031,-0.188 0.188,-0.063 0.469,0.375Z" style="fill:#fefee4;fill-rule:nonzero;"/><path d="M194.234,456.309c-0.156,-0.125 -0.313,-0.281 -0.469,-0.406c0.063,-0.5 0.219,-0.437 0.469,0.406Z" style="fill:#fefee4;fill-rule:nonzero;"/><path d="M198.765,417.247c-1,-0.031 -2,-0.094 -2.969,-0.156c-27.062,-0.875 -54.125,-1.875 -81.187,-3.032c-8.969,5.782 -18.313,11.969 -28.813,14.375c-11.625,0.219 -24.218,-6.406 -35,0.907c-6.062,5.875 -14.406,1.843 -19.437,7.156l-0.125,0.094c-1.094,-1.469 -1.938,-3.313 -2.969,-4.875c-3.062,-3.25 0.656,-7.407 1.125,-11.125c1.094,-10.813 2.031,-21.782 4.813,-32.313l0.375,0.094c1.187,-1.438 1.75,-3.281 2.781,-4.844c7.219,-3 13.812,0.063 22.094,-0.531c7.906,-1.125 18.093,3.469 24.437,-0.563c-1.656,-13.812 14.313,-10.031 22.563,-10.937c10.062,5.25 12.656,-5.844 16.937,-11.719c9.25,4.531 18.25,12.938 28.594,15.219c7.844,1.531 14.844,10.281 24.031,7.094c6.688,-4.969 27.125,-1.688 19.813,-15.032c-8.875,-14.718 -24.782,9.844 -33.719,-2.406c-1.25,-9.5 -8.781,-10.187 -16.125,-7.062c-2.5,-10.344 -15.656,-15.75 -24.969,-9.219c-7.469,-3.469 -16.312,1.406 -16.562,10.281c-19.938,-0.937 -34.625,-1.625 -54.563,-2.187l-0.031,0.031c-1.031,-2.938 -1.875,-5.906 -1.344,-9.031c-1.719,-4.375 -4.969,-8.375 -7.25,-12.594c-2.844,-9.688 -6.281,-19.156 -10.406,-28.344c-3.719,-6.219 -8.656,-11.812 -13.969,-16.781c-3.125,-3.5 0.656,-7.125 2.438,-10.188c6.093,-4.781 11.531,-10.218 16.281,-16.312c6.437,-6.906 11.844,-14.563 16.812,-22.563c4.813,-7.843 10.625,-15.156 15.094,-23.156c0.719,-4.062 1.25,-8.187 1.688,-12.312c1.656,-3.782 2.437,3.062 3.375,-3.782c9.062,-5.718 3.687,-24.093 17.375,-24.125c7.375,4.438 14.156,3.875 23.187,5.282c9.75,-6.313 20.063,-1.657 31.031,-5.219c0.032,-5.906 1.938,-1.688 5.469,-3.063c6.5,-1.281 18.906,3.219 28.25,2.313c11.219,-1.656 16.125,10.219 24.75,17.25c-0.156,1.281 6.781,18.219 14.344,12.656c-1.656,3.563 5.125,3.094 13.656,1.938c-4.531,4.625 4.344,1.437 4.313,5.406c3.343,8.594 6.687,17.125 6.875,25.531c6.5,-0.062 6.625,4.688 8.468,9.313c7.094,-3.032 5.969,4.312 8,8.718c8.094,1.5 -3.187,7.25 3.344,7.907c3.219,5.937 9.25,7.875 15.281,11c4,6.781 8.094,13.968 15.188,17l-0.188,0.468c11.032,7.313 -7.312,17.063 3.719,24.157c6.219,5.093 9.688,13.593 5.5,21.906c2.656,6.094 5.125,12.875 -2.937,16.406c-6.344,8.719 10.875,14.094 7.812,22.656c4.625,7.625 8.188,-8.062 13.844,0.438c4.187,6.406 3.406,15.281 9.25,20.562c1.781,4.469 3.25,4.688 -0.313,9.782c2.844,7.937 -7.312,17.25 1.188,23.281c-0.969,2.562 -2.938,3.219 -5.344,3.219c-4.594,0 -10.75,-2.313 -14.656,1.437c-9.938,-0.219 -20.625,-3.656 -29.594,2.656c-7.625,3.75 -10.594,-7.156 -18.531,-3.093c-5.844,-4.125 -14.25,-6 -19.281,-10.25c-4.25,7.75 -10,1.562 -7.282,-5c-10.875,-3.5 -24.25,-4.094 -36.531,-4.719Z" style="fill:#fefee4;fill-rule:nonzero;"/><path d="M68.984,510.028l-3.438,3.906l-9.093,5.032l-1.875,-6.625l7.625,-3.094l6.781,0.781Z" style="fill:#fefee4;fill-rule:nonzero;"/><path d="M62.328,368.372c-2,2.125 -4.469,4.531 -7.532,5.562c-2.687,-2.437 -1.781,-6.156 -2.625,-9.312c-0.343,-2.781 -1.406,-5.438 -2.312,-8.125l0.031,-0.031c19.938,0.562 34.625,1.25 54.563,2.187c0.25,-8.875 9.093,-13.75 16.562,-10.281c9.313,-6.531 22.469,-1.125 24.969,9.219c7.344,-3.125 14.875,-2.438 16.125,7.062c8.937,12.25 24.844,-12.312 33.719,2.406c7.312,13.344 -13.125,10.063 -19.813,15.032c-9.187,3.187 -16.187,-5.563 -24.031,-7.094c-10.344,-2.281 -19.344,-10.688 -28.594,-15.219c-4.281,5.875 -6.875,16.969 -16.937,11.719l1.781,-3.438c0.625,0.344 1.312,0.563 2.187,0.438c2.125,1.469 4.563,-2.719 3.375,-2.688c-1.468,3.625 -5.906,1.438 -7.812,-0.625c-1.094,-2.125 -3.531,0.282 -4.781,-1.875c-2.313,-2.625 -3.75,2.594 -5.875,1.969c-2.219,-3.406 -5.344,1.469 -8.282,1.219c-4.312,-0.406 -8.5,0.187 -12.781,0.562c-2.375,-0.906 -5.094,1.625 -6.781,-0.718c-1.781,-0.532 -3.469,1.281 -5.156,2.031Z" style="fill:#fefee4;fill-rule:nonzero;"/><path d="M52.546,445.309c-5.593,-1.843 -11.156,-3.75 -16.625,-5.843c-2.156,-0.25 -3.562,-1.375 -4.687,-2.875l0.125,-0.094c5.031,-5.313 13.375,-1.281 19.437,-7.156c10.782,-7.313 23.375,-0.688 35,-0.907c10.5,-2.406 19.844,-8.593 28.813,-14.375c27.062,1.157 54.125,2.157 81.187,3.032c0.969,0.062 1.969,0.125 2.969,0.156c-2.812,6.687 5.156,12.562 1.094,19.875c-1.781,8.562 -8.531,2.344 -12.531,5.406c-11.032,3.813 1.625,9.438 6.437,13.375c-0.469,2.938 1.344,26.313 -7.344,17.375c-2.812,10.906 -18,2.375 -24.75,5.094c-7.843,10.687 -24.031,3.375 -29.406,15.719c-4.937,9.5 -10.156,22.343 -19.312,28.968c1.125,-4.062 1.25,-8.531 4.25,-11.656c-4.813,0.688 -9.657,1.844 -14.219,-0.406c-1.719,-3.313 -4.438,-6.281 -4.406,-10.219c-1.907,-5.125 1.875,-9.562 3,-14.469c-0.75,-3.781 -3.688,-7.312 -4.125,-11.437c-0.063,-3.031 5.218,-4.125 7.218,-6.406c7.844,-3.75 16.875,-2.188 25.313,-2.875c2.094,-4.157 1.937,-6.532 -3.219,-4.907c-7.906,1.219 -16.156,0.25 -23.812,2.657c-9.063,2.125 -16.625,8.812 -26.157,9.031c-4.593,0.719 -5.343,-3.406 -4.656,-7.094c1.344,-5.187 -4.812,-1.312 -7.625,-2.656c-3.156,-1.313 -7.937,-0.406 -9.812,-3.469c-3.438,-3.844 -2.469,-9.125 -2.157,-13.844Z" style="fill:#fefee4;fill-rule:nonzero;"/><path d="M61.39,375.466c-1.469,2.812 1.281,3.593 3.188,1.781c1.218,-1.813 -4.219,2.344 -2.25,-1.531c-1.063,-1.719 -1.282,-4.063 0.531,-5.5c2.031,-0.407 2.344,-3.75 4.656,-1.813c4.063,1.656 7.875,-0.469 12.063,0.063c2,-0.532 3.312,-1.157 5.406,-0.469c2.969,0.375 5.969,-1 8.562,-1.969c1.407,2.188 4.032,1.031 5.063,-0.844c1.437,-3.187 3.437,1.5 5.469,-0.093c1.687,0.312 2.687,2.093 4.156,2.968l-1.781,3.438c-8.25,0.906 -24.219,-2.875 -22.563,10.937c-6.344,4.032 -16.531,-0.562 -24.437,0.563c-8.282,0.594 -14.875,-2.469 -22.094,0.531c-1.031,1.563 -1.594,3.406 -2.781,4.844l-0.375,-0.094c0.031,-0.156 0.093,-0.312 0.125,-0.469c-0.688,-4.406 -1.719,-8.812 0.468,-12.968c0.938,-3.407 1.563,-7.032 5.219,-8.5c1.875,2.75 3.156,6 5.875,8.031c1.906,2.781 6.281,4.281 8.969,2.531c1.312,-1.625 5.437,-4.594 6.531,-1.437Z" style="fill:#fefee4;fill-rule:nonzero;"/><path d="M1151.08,811.903c-7.063,0.906 -14.219,0.469 -21.282,1.313c-1.781,-0.032 -3.562,0.031 -5.343,0.156l-0.032,-0.406c1.594,-12.813 5.532,-26.344 1.532,-38.782c5.656,-8.375 -1.032,-21.031 4.281,-30.625c-6.406,-7.75 -1.125,-17.187 -5.406,-25.843c5,-11.657 -0.375,-23.407 4.312,-34.625c-0.781,-9.407 0.375,-18.344 2.031,-27.469c2.5,-11.281 22,0.281 21.75,-14.875c2.469,-7.531 -1.781,-15.406 6.438,-20.438c0.937,-5.125 9.719,-4.937 5.344,-11.562c4,-6.969 17.718,-2.625 16.937,-14.469c4.969,-5.437 3.344,-10.344 -1.156,-15.531c0.281,-6.125 5.875,-11.563 11.531,-8.281c5.563,-7.5 4.469,-16.594 -1.375,-23.563c3.125,-11.062 -3.531,-21.031 -10.531,-29.281c-7.438,-6.906 -1.156,-15.813 3.437,-22.281l0.375,-1.719c3.188,0.281 5.782,-1.844 1.688,-5.969c1.062,-10.469 1.937,-21.406 2.594,-32.562c-3.032,-11.907 10.156,-14.844 16.656,-21.5c7.031,-8.313 12.656,-18.469 12.75,-29.594c-4.438,-12.156 7.562,-14 14,-20.594c5.375,-7.75 15.719,-6.219 23.719,-9.094c10.562,-0.968 26.812,6.313 34.781,-5.093c10.781,-5.5 20.094,4.562 30.187,7.156c8.969,6.844 20.157,0.625 28.313,7.5c7.156,7.062 15.187,13.906 19,23.5c2.937,7.937 11.312,16.531 20.375,12.219c3.844,-6.688 11.156,-6.313 17.469,-6.032c10.437,-4.218 19.343,-15.656 31.406,-12.781c14.281,-0.719 20.656,15.313 34,15.969c7.719,8.5 19.062,12.75 30.687,13.437c11.407,-0.187 24.313,5.032 34.594,0.125c9.281,-10.812 19.344,-22.718 33.938,-25.906c12.062,0.063 23.187,-7.562 35.312,-5.312c11.25,3.312 22.781,-1.094 34.063,0.687c11.937,3.281 21.534,4.628 31.253,12.847c0.056,22.419 2.062,311.259 0,317.759c-11.219,8.563 2.559,14.238 -10.535,21.457c-5.718,5.406 -5.812,9.562 0.75,14.156c-0.187,9.625 -23.625,11 -16.812,24.812c-1.813,6.907 -10.125,8.719 -12.031,15.594c-9.375,5.594 -21.188,-0.187 -17.688,-11.844c-0.094,-8.781 -13.594,-5.718 -13.187,-15.656c-3.844,-2.812 -14.407,-9.094 -15.719,-9.875l0,-0.031c-0.063,-0.031 -0.063,-0.031 -0.094,-0.031c0.031,0 0.063,0.031 0.094,0.062c0.469,12.5 -11.906,16.094 -21.594,11.563c-5.125,-14.875 -13.656,8.218 -23.344,6.812c-5.687,2.844 -3.062,16.656 -13.125,16.906c-8.875,6.563 -16.062,14.125 -23.843,21.563c-7.219,5.281 -11.282,13 -18.938,17.187c-0.094,5.313 -3.219,10.063 1.781,13.469c-4.968,10.875 -2.218,24.063 -10.875,33.156c-4.406,8.063 -12.625,16.157 -16.437,22.782c-1.188,-2.938 -4.219,-5.469 -5.688,-8.563c-1.937,-1.812 -7.406,-4.969 -7.562,-0.156c-3.219,5.969 -3.438,12.687 -4.25,19.281c-12.125,-0.687 -24.344,-1.156 -36.406,0.531c-8.407,-3 -16.469,-7.593 -25.032,-10.406c-2.468,3.469 -3.968,8 -8.5,9.125c-2.156,3.031 -4.281,6.219 -8.125,7.063c-3.625,-0.75 -5.562,4.812 -8.875,0.812c-3,-4.031 -6.125,4.094 -8.312,-0.844c-5.969,3.5 -12.219,6.5 -18.469,9.532c-1.75,-1.563 -1.906,-6.688 -3.031,-9.594c-5.031,0.25 -10.25,2.406 -15.063,0.094c-3,-1.5 -7.5,-1.094 -9.437,-3.875c-3.875,-8.407 -10.375,-15.125 -17.313,-21.094c-1.906,-9.156 -5.5,-18.063 -5.218,-27.531c-1.438,-4.125 1.312,-6.125 4.656,-7.813c1.219,-1.062 -5.969,-0.594 -7.844,-2.406c-4.187,-0.313 -3.656,-5.344 -5.25,-8.281c-0.375,-3.657 -3.531,-5.594 -5.375,-8.344c-1.094,-3.594 -2.156,-7.219 -6.656,-6.594c-1.219,-4.719 -4.344,-8.344 -7.188,-12.156c-2.062,-4.313 -6.406,-6 -10.375,-8.156c-5.75,-2.5 -10.531,-7.032 -16.437,-9c-9.031,-3.219 -18.688,-2.375 -28.031,-3.813c-14.75,-1 -29.532,0.594 -44.25,1.625Z" style="fill:#fcc;fill-rule:nonzero;"/><path d="M997.078,302.278c0.843,-3.656 3.062,-5.656 8.718,-2.906c2.657,0.5 5.625,0.187 7.813,-1.625l0.25,0c12.375,5.375 28.562,3.406 37.031,-7.906c5.781,-8.219 15.281,-9.594 24.531,-8.563c27,-1.125 54.063,-2.844 81.094,-1.469c3.969,-10.25 15.906,-0.937 24.188,-1.593c9.031,4.593 5.031,-10.219 13.656,-11.657c6.125,-5.906 17.969,-6.062 16.312,-18c5.938,-10.781 6.469,-24.375 17.344,-32.281c-0.125,-12.25 0.219,-24.625 4.094,-36.312c1.75,-40.719 3.156,-81.532 5.219,-122.25c29.468,-5.282 58.906,-10.844 88.375,-16.063c32.093,-26.375 20.928,-23.569 53.053,-49.912c390.312,0.528 284.231,-10.75 291.95,0c-10.188,6.343 11.278,421.912 3.184,422.068c-9.719,-8.218 -22.5,-10.75 -34.437,-14.031c-11.282,-1.781 -22.813,2.625 -34.063,-0.687c-12.125,-2.25 -23.25,5.375 -35.312,5.312c-14.594,3.188 -24.657,15.094 -33.938,25.906c-10.281,4.907 -23.187,-0.312 -34.594,-0.125c-11.625,-0.687 -22.968,-4.937 -30.687,-13.437c-13.344,-0.656 -19.719,-16.688 -34,-15.969c-12.063,-2.875 -20.969,8.563 -31.406,12.781c-6.313,-0.281 -13.625,-0.656 -17.469,6.032c-9.063,4.312 -17.438,-4.282 -20.375,-12.219c-3.813,-9.594 -11.844,-16.438 -19,-23.5c-8.156,-6.875 -19.344,-0.656 -28.313,-7.5c-10.093,-2.594 -19.406,-12.656 -30.187,-7.156c-7.969,11.406 -24.219,4.125 -34.781,5.093c-8,2.875 -18.344,1.344 -23.719,9.094c-6.438,6.594 -18.438,8.438 -14,20.594c-0.094,11.125 -5.719,21.281 -12.75,29.594c-6.5,6.656 -19.688,9.593 -16.656,21.5c-0.657,11.156 -1.532,22.093 -2.594,32.562c4.094,4.125 1.5,6.25 -1.688,5.969c-2.781,-0.219 -6.031,-2.25 -5.812,-6.281c-13.563,-2.625 -16.75,-16.844 -27.281,-24.594c-4.969,-7.719 -13.719,-11.969 -20.469,-4.031c-8.094,0.625 -22.031,2.75 -14.656,13.875c3.687,2.406 0.312,8.968 -1.594,8.968c-0.375,0 -0.719,-0.25 -0.906,-0.812c-5.688,-7.25 -10.094,-15.438 -15.813,-22.719c-4.844,-9.062 16.344,-2.844 8.656,-13.062c-0.656,-10.75 -14.968,-16.219 -20.781,-5.875c-12.375,4.187 -23.094,-5.032 -31.312,-13.563c-5,-7.094 -13.688,-8.281 -18.25,-14.187c0.5,-5.688 -1.625,-22.438 8,-14.282c4.843,-0.187 13.093,-1.875 3.875,-4.625c-10.157,-1.031 -10.657,-14.937 -22.094,-14.937c-3.438,-3.313 -12.281,-0.594 -10.719,-8c-5.562,-5.594 -10.375,-12.969 -11.719,-20.781c8.875,-12.657 -18.906,-17.782 -7.312,-31.188c1.125,-3.844 0.25,-10.781 1.344,-15.25Z" style="fill:#e8f2ad;fill-rule:nonzero;"/><path d="M1063.52,817.466c10.969,-1.438 5.438,-13.5 -0.156,-18.782c-8.563,-6.718 0.406,-16.812 -5.906,-24.875c7.375,-1.031 4.562,-10.062 5.187,-15.937c0.844,-11.656 0.594,-23.281 0.625,-34.938c0.563,-12.156 -0.5,-24.781 0.906,-36.531c-0.75,-10.156 -0.093,-20.312 -0.375,-30.5c2.438,-13.312 -14.375,-18.125 -13.312,-31.312c-3.688,-9.594 6.375,-27.5 -6.188,-34.157c-8.968,-6.343 -19.531,-11.562 -26.406,-20.187c-1.219,-13.031 6.438,-23.219 9.031,-35.438l-0.156,-0.343c1.406,-0.594 2.469,-1.75 3.094,-3.688c3.969,-0.937 10.031,5.875 6.156,-3.906c6.625,-0.594 1.969,-7.344 7.031,-7.938c5.282,4.313 3.875,-3.593 7.688,-1.375c-0.969,4.813 9.25,-15.25 15.031,-7.125c8.25,1.313 17.094,-1.968 25.781,-0.843c8.532,-8.219 19.813,-14.469 22.688,-27l-0.125,-1.032c1.906,0 5.281,-6.562 1.594,-8.968c-7.375,-11.125 6.562,-13.25 14.656,-13.875c6.75,-7.938 15.5,-3.688 20.469,4.031c10.531,7.75 13.718,21.969 27.281,24.594c-0.219,4.031 3.031,6.062 5.812,6.281l-0.375,1.719c-4.593,6.468 -10.875,15.375 -3.437,22.281c7,8.25 13.656,18.219 10.531,29.281c5.844,6.969 6.938,16.063 1.375,23.563c-5.656,-3.282 -11.25,2.156 -11.531,8.281c4.5,5.187 6.125,10.094 1.156,15.531c0.781,11.844 -12.937,7.5 -16.937,14.469c4.375,6.625 -4.407,6.437 -5.344,11.562c-8.219,5.032 -3.969,12.907 -6.438,20.438c0.25,15.156 -19.25,3.594 -21.75,14.875c-1.656,9.125 -2.812,18.062 -2.031,27.469c-4.687,11.218 0.688,22.968 -4.312,34.625c4.281,8.656 -1,18.093 5.406,25.843c-5.313,9.594 1.375,22.25 -4.281,30.625c4,12.438 0.062,25.969 -1.532,38.782l0.032,0.406c-9.844,0.5 -19.594,2.5 -29.469,2.75c-11.094,-0.188 -21.875,2.312 -32.531,5.125l-0.125,-0.531l-0.5,-2.438l1.687,-0.812Z" style="fill:#fffdc0;fill-rule:nonzero;"/><path d="M815.89,622.934c-0.187,0.063 -0.531,-0.125 -1.062,-0.593c-6.313,11.281 -12.657,-6.782 -14.969,-12.657c-5.031,-1.687 -12.406,-9.937 -13.938,-12.562c0.157,-0.125 0.344,-0.281 0.5,-0.469c-0.875,-0.625 -0.968,-0.344 -0.5,0.469c-5.437,4.75 -11.968,-5.656 -19.437,-2.063c-8.688,-3.031 -18.469,0.969 -25.719,5.532c-8.312,-0.5 -16.406,4.125 -18.812,12.406c-5.25,1.344 -2.469,0.125 -8.219,-2.563c-4.5,0.219 -1.781,-8.531 -6.813,-2.968c-6.062,0.343 -5.187,2.875 -10.093,-3.344c-0.438,-0.438 -0.875,-0.813 -1.313,-1.125c0.719,-7.25 -14.031,-4.5 -9.875,-13.906c-4.969,-9.313 -2.656,-2.313 -6.156,-10.344c-0.594,-3.969 -4.844,-11.063 -12.875,-8.031c-7.156,1.406 -10.094,-2.813 -10.531,-8.094c-0.344,-3.969 0.718,-8.531 2.468,-11.75c2.188,-8.063 4.5,-15.781 0.094,-23.844c2.75,-5.5 13.406,-3.687 13.688,-12.844c1.406,-8.656 6.843,-16.75 0.062,-24.031c1.938,-2.844 0.219,-8.094 -1.687,-10.719c7.437,-2 12.062,-10.562 20.812,-9.281c9.188,0.344 22.469,-2.844 24.313,-12.406c0.843,-1.375 6.562,-6.719 8.656,-7.813c0.094,0.344 0.219,0.657 0.344,1c0.687,-1.218 0.437,-1.406 -0.344,-1c-2.281,-7.781 5.906,-13.187 -2.313,-19.562c1.032,-8.094 18.407,2.125 15.875,-10.281c1.594,-8.25 -13.593,-18.375 -0.218,-20.907c2.218,-4.937 11.468,-13.062 16.125,-17.031c6.187,2.594 -4.282,6.688 3.875,7.125c9.312,-0.812 17.843,18.969 25.468,9.531c0,-7.562 14.469,1.032 11.157,-10c-1.688,-4.812 4.406,-17.562 2.5,-17.937c6.656,0.656 14.562,9.156 18.781,0.531c-2.438,-11.156 4.594,-22.562 15.031,-26.781c8.594,-14.281 22.531,-2.188 33.375,0.125c8.906,-4 -0.25,-23 14.313,-19c11.375,1.531 19.218,-8.781 28.75,-12.969c13.906,-1.969 24.75,-10.25 34.718,-19.812c7.282,-3.157 16.532,-0.844 22.407,2.593c7.25,-5.687 12.968,-0.187 20.156,2.032c4.187,1.562 8.406,3.125 12.594,4.687c-1.094,4.469 -0.219,11.406 -1.344,15.25c-11.594,13.406 16.187,18.531 7.312,31.188c1.344,7.812 6.157,15.187 11.719,20.781c-1.562,7.406 7.281,4.687 10.719,8c11.437,0 11.937,13.906 22.094,14.937c9.218,2.75 0.968,4.438 -3.875,4.625c-9.625,-8.156 -7.5,8.594 -8,14.282c4.562,5.906 13.25,7.093 18.25,14.187c8.218,8.531 18.937,17.75 31.312,13.563c5.813,-10.344 20.125,-4.875 20.781,5.875c7.688,10.218 -13.5,4 -8.656,13.062c5.719,7.281 10.125,15.469 15.813,22.719c0.187,0.562 0.531,0.812 0.906,0.812l0.125,1.032c-2.875,12.531 -14.156,18.781 -22.688,27c-8.687,-1.125 -17.531,2.156 -25.781,0.843c-5.781,-8.125 -16,11.938 -15.031,7.125c-3.813,-2.218 -2.406,5.688 -7.688,1.375c-5.062,0.594 -0.406,7.344 -7.031,7.938c3.875,9.781 -2.187,2.969 -6.156,3.906c-0.625,1.938 -1.688,3.094 -3.094,3.688c-5.375,2.437 -15.406,-2.625 -21,2.437c-8.781,-6.375 -22.469,-6.594 -33.687,-9.906c-2.125,-0.156 -4.344,-0.875 -6.438,-1.5c-4.406,-1.344 -8.312,-2.344 -9.906,2.75c-6.688,-2.156 -8.781,6.781 -15.781,7.719c-3.844,5.531 -6.969,-7.5 -13.532,-2.25c-8.812,-2.032 -18,-0.438 -27.062,-0.782c-12.5,-3.75 -24.844,1.188 -37.75,-0.562c-14.469,-0.031 -29.125,-0.969 -43.5,-0.219c-10.063,-3.25 -7.188,9.125 -12.313,14.688c-3.312,7.343 1.094,16.031 6.219,20.125c-8.5,4.812 5.188,9.562 -1.437,16.25c0.75,8.062 3.875,16.875 -0.407,24.75c1.719,4.25 7,14.687 5.719,14.968Z" style="fill:#ffdea9;fill-rule:nonzero;"/><path d="M986.109,615.966c0.125,0.031 0.281,0.093 0.5,0.187c-0.219,-0.062 -0.375,-0.125 -0.5,-0.187Z" style="fill:#fefee4;fill-rule:nonzero;"/><path d="M984.109,624.778c8.875,-0.656 -6.25,-6.094 3.594,-5.906c4.75,-0.344 0.656,-2.094 -1.094,-2.719c-2.406,-4.937 8.687,-0.562 4.125,-8.562c0.156,-9.5 5.469,-17.032 1.656,-25.969c5.844,-7.781 -5.812,-11.625 -10,-14.844c-2.812,-8.812 -20.656,-10.344 -10.969,-21.594c2.125,-5.812 9.532,-19.812 -2.812,-17c-1.438,-0.125 -2.625,-1.218 -3,-2.593l0.031,-0.094c2.094,0.625 4.313,1.344 6.438,1.5c11.218,3.312 24.906,3.531 33.687,9.906c5.594,-5.062 15.625,0 21,-2.437l0.156,0.343c-2.593,12.219 -10.25,22.407 -9.031,35.438c6.875,8.625 17.438,13.844 26.406,20.187c12.563,6.657 2.5,24.563 6.188,34.157c-1.063,13.187 15.75,18 13.312,31.312c0.282,10.188 -0.375,20.344 0.375,30.5c-1.406,11.75 -0.343,24.375 -0.906,36.531c-0.031,11.657 0.219,23.282 -0.625,34.938c-0.625,5.875 2.188,14.906 -5.187,15.937c6.312,8.063 -2.657,18.157 5.906,24.875c5.594,5.282 11.125,17.344 0.156,18.782l-1.687,0.812l0.5,2.438l0.125,0.531c-1.844,0.469 -3.688,0.969 -5.532,1.469c-6.687,1.593 -13.156,3.781 -19.406,6.562l-0.25,-0.562c-0.781,-8.219 -12.5,-7.438 -12.969,-14.875c-7.843,-3.563 -16.406,-8.782 -16.906,-17.657c-5.594,-3.281 -3.719,-11.031 -9.406,-15.062c2.5,-5.25 -4.063,-8.781 4.031,-10.781c-1.125,-7.782 9.656,-22.344 -3.125,-22.969c-6.219,-9.719 8.719,-16.656 5.063,-27.375c-0.032,-8.875 -4.532,-20.844 6.093,-24.813c2.063,-13.406 -18.781,-15.437 -17.375,-28.687c10.125,-1.563 5.063,-11.188 4.157,-17.406c2.781,-7.813 11.093,-23.625 -2.25,-25.688c-3.063,0.344 -9.407,8.375 -10.469,1.375Z" style="fill:#ebcef2;fill-rule:nonzero;"/><path d="M789.484,891.216c-2.719,-0.719 -5.438,-1.469 -8.188,-2.188l0.063,-0.187c4.594,-8.875 27.75,7.125 22.062,-13.438c-3.093,-6.969 6.125,-7 1.5,-13.625c0.907,-8.656 -5.312,-10.719 -12,-10.531c0.063,-4.906 -5.937,-6.375 -2.812,-12.563c-3.531,-12.687 -8.281,-24.75 -11.094,-37.687c-1.062,-12.563 0.219,-24.219 8.563,-34.531c9.062,-4.407 6.187,-15.625 8.968,-23.75c0.907,-8.563 4.594,-16.407 9.407,-23.469c0.843,-9.594 14.312,-8.938 13,-18.969c10.375,-2.875 1.125,-18.25 2.187,-26.781c-1.656,-8.438 -1.562,-15.906 -6.156,-23.531c-12.406,-3.188 4.156,-12.313 -0.781,-18.469c1.625,-2.625 2.687,-5.719 1.687,-8.563c1.281,-0.281 -4,-10.718 -5.719,-14.968c4.282,-7.875 1.157,-16.688 0.407,-24.75c6.625,-6.688 -7.063,-11.438 1.437,-16.25c-5.125,-4.094 -9.531,-12.782 -6.219,-20.125c5.125,-5.563 2.25,-17.938 12.313,-14.688c14.375,-0.75 29.031,0.188 43.5,0.219c12.906,1.75 25.25,-3.188 37.75,0.562c9.062,0.344 18.25,-1.25 27.062,0.782c6.563,-5.25 9.688,7.781 13.532,2.25c7,-0.938 9.093,-9.875 15.781,-7.719c1.594,-5.094 5.5,-4.094 9.906,-2.75l-0.031,0.094c0.375,1.375 1.562,2.468 3,2.593c12.344,-2.812 4.937,11.188 2.812,17c-9.687,11.25 8.157,12.782 10.969,21.594c4.188,3.219 15.844,7.063 10,14.844c3.813,8.937 -1.5,16.469 -1.656,25.969c4.562,8 -6.531,3.625 -4.125,8.562c-0.219,-0.094 -0.375,-0.156 -0.5,-0.187c0.125,0.062 0.281,0.125 0.5,0.187c1.75,0.625 5.844,2.375 1.094,2.719c-9.844,-0.188 5.281,5.25 -3.594,5.906c1.062,7 7.406,-1.031 10.469,-1.375c13.343,2.063 5.031,17.875 2.25,25.688c0.906,6.218 5.968,15.843 -4.157,17.406c-1.406,13.25 19.438,15.281 17.375,28.687c-10.625,3.969 -6.125,15.938 -6.093,24.813c3.656,10.719 -11.282,17.656 -5.063,27.375c12.781,0.625 2,15.187 3.125,22.969c-8.094,2 -1.531,5.531 -4.031,10.781c5.687,4.031 3.812,11.781 9.406,15.062c0.5,8.875 9.063,14.094 16.906,17.657c0.469,7.437 12.188,6.656 12.969,14.875l0.25,0.562c-0.25,0.094 -0.5,0.188 -0.75,0.313c-3,2.781 -5.156,6.718 -7.844,9.937c-2.468,2.344 -3.406,7.125 -7.093,7.563c-3.188,-0.063 -7.344,3.187 -9.657,-0.063c-0.843,-3.75 -7.843,-0.969 -6.937,-1.531c0.156,-1.156 -2.906,-3 -2.094,-4.75c1,-4.688 -2.781,-8.906 -6.719,-10.906c-1.75,-2.219 -4.906,-3.657 -7.718,-3.157c-0.75,2.688 -2.938,1.875 -5.032,1.563c-1.562,-1.531 -3.875,-4.5 -6.218,-2.313c2.593,-0.437 4.468,2.969 6.906,3.532c2.875,2.562 3.812,-1.938 6.094,-2.188c1.656,1.594 4.218,1.469 5.25,3.656c2.812,0.657 5.031,2.657 5.843,5.375c1.969,2.157 0,4.657 0.719,6.907c0.281,2.062 2.469,2.906 -1.156,3.375c-8.156,0.562 -16.188,1.781 -24.031,4.156c-17.594,7.906 -34.438,17.562 -50.719,27.875c-11.188,2.406 -22.563,4.719 -33.719,7.531c-4.75,1.625 -10.437,2.188 -13.937,6.125c-7.5,8.125 -18.125,12.031 -27.969,16.531c-11.906,-4.343 -23.219,-10.312 -35.375,-13.937c-8.438,-2.125 -17.219,-2.719 -25.875,-3.656Z" style="fill:#e8f2ad;fill-rule:nonzero;"/><path d="M785.921,597.122c-0.468,-0.813 -0.375,-1.094 0.5,-0.469c-0.156,0.188 -0.343,0.344 -0.5,0.469Z" style="fill:#fefee4;fill-rule:nonzero;"/><path d="M724.484,449.934c0.781,-0.406 1.031,-0.218 0.344,1c-0.125,-0.343 -0.25,-0.656 -0.344,-1Z" style="fill:#fefee4;fill-rule:nonzero;"/><path d="M695.515,602.997c0,0.437 -0.125,0.937 -0.281,1.469c-4.375,-3.719 -2.469,-3.688 0.281,-1.469Z" style="fill:#fefee4;fill-rule:nonzero;"/><path d="M670.703,479.434c-1,0.25 -2.032,0.375 -3.157,0.375c0.219,-2.875 1.719,-2.343 3.157,-0.375Z" style="fill:#fefee4;fill-rule:nonzero;"/><path d="M512.39,823.216c-0.125,0.187 -0.312,0 -0.531,-0.75c0.187,0.218 0.344,0.468 0.531,0.75Z" style="fill:#fefee4;fill-rule:nonzero;"/><path d="M478.015,730.622c4.406,0.25 10.063,-1.5 14.281,2.469c6.938,-6.532 6.594,-14.844 8.75,-22.688c-1.75,-7.344 11.094,-3.812 5.563,-8.75c3.906,-10.687 -17.469,-2.469 -12.688,-14.375c-3.593,-11.344 9.532,-13.344 17.188,-9.281c2.531,7.719 7.375,-3.563 8.344,2.469c6.687,10.5 8.687,-3.782 6.281,-9.438c0.875,-11.344 -17.25,-7.594 -14.125,-17.281c-2.875,-8.813 12.562,-9.781 10.469,-14.156c-10.157,-2.875 -7.438,-9.875 -4.094,-17.25c1.844,-2.375 -11.344,4.875 -15.5,-6.782c0.469,-10.187 2.281,-20.062 1.25,-29.406l0.031,0c2.25,-4.25 8.875,-4.562 9.844,-9.75l1.906,-0.781c0.656,1.375 2.156,1.562 5.75,-0.906c5.625,-4.594 7.438,-17.157 17.313,-13.313c7.406,-7.125 9.75,18.094 10.531,6.844c3.406,7.375 15.75,2.562 20.062,10.344c5.844,-3.063 -1.281,-14.407 9.844,-12.782c6.094,1.657 15.531,0.782 9.781,-7.625c-0.875,-5.218 3.25,-13.906 7.094,-5.718c5.219,4.625 11.719,0.937 8.469,-4.782c7.031,-6.437 16.156,0.25 10.031,7.782c4.031,4.093 3.813,11.062 -0.156,16.187c6.594,11 18.781,1.656 20.937,-5.969c5.5,-2.625 13.75,-5.5 19.719,-3l1.188,-0.062c0.437,5.281 3.375,9.5 10.531,8.094c8.031,-3.032 12.281,4.062 12.875,8.031c3.5,8.031 1.187,1.031 6.156,10.344c-4.156,9.406 10.594,6.656 9.875,13.906c-2.75,-2.219 -4.656,-2.25 -0.281,1.469c0.156,-0.532 0.281,-1.032 0.281,-1.469c0.438,0.312 0.875,0.687 1.313,1.125c4.906,6.219 4.031,3.687 10.093,3.344c5.032,-5.563 2.313,3.187 6.813,2.968c5.75,2.688 2.969,3.907 8.219,2.563c2.406,-8.281 10.5,-12.906 18.812,-12.406c7.25,-4.563 17.031,-8.563 25.719,-5.532c7.469,-3.593 14,6.813 19.437,2.063c1.532,2.625 8.907,10.875 13.938,12.562c2.312,5.875 8.656,23.938 14.969,12.657c0.531,0.468 0.875,0.656 1.062,0.593c1,2.844 -0.062,5.938 -1.687,8.563c4.937,6.156 -11.625,15.281 0.781,18.469c4.594,7.625 4.5,15.093 6.156,23.531c-1.062,8.531 8.188,23.906 -2.187,26.781c1.312,10.031 -12.157,9.375 -13,18.969c-4.813,7.062 -8.5,14.906 -9.407,23.469c-2.781,8.125 0.094,19.343 -8.968,23.75c-8.344,10.312 -9.625,21.968 -8.563,34.531c2.813,12.937 7.563,25 11.094,37.687c-3.125,6.188 2.875,7.657 2.812,12.563c6.688,-0.188 12.907,1.875 12,10.531c4.625,6.625 -4.593,6.656 -1.5,13.625c5.688,20.563 -17.468,4.563 -22.062,13.438l-0.063,0.187c-7.968,-2.125 -15.968,-4.125 -24.156,-5.344c-7.062,-0.593 -13.062,-6.187 -20.25,-5.156c-13.031,0.313 -26,1.406 -38.875,3.281c-14.906,2.188 -30.094,2.844 -44.781,6.375c-7.375,-1.562 -14.531,1.813 -21.719,3.157c-7.687,1.062 -14.125,5.406 -20.875,8.875c-14,4.156 -27.656,9.5 -41.219,14.968c-8.218,5.532 -18.125,7.875 -26.25,13.594c-4.25,3.688 -10.031,2.469 -15.125,3.563l-0.031,-0.282l-1,-3.406l-2.156,-1.187c1.812,-11.344 -3.313,-27.219 1.187,-36.782c-3.156,-6.906 2.75,-8.593 4.75,-14.062c-1.187,-7.281 3.032,-5.094 5.969,-8.219c-6.781,-6.469 3.063,-15.656 -2.719,-23.562c4.094,-9.938 -5.718,-6.907 -11.031,-12.75c-6.187,1.687 -8.437,-5.344 -10.625,-8.875c0.594,-1.032 -0.875,-13.375 -8.312,-14.063c-8.719,1.25 -18.157,-1.25 -24.938,-5.531c0.25,-6.719 0.688,-5.875 -4.719,-4.188c-11.437,-2.906 -0.656,-8.875 3.813,-13.25c8.687,-6.593 7.281,-18.281 8.656,-27.781c-5.031,-8.031 -4.219,-18.219 -8.969,-26l0.094,-1.781Z" style="fill:#fffdc0;fill-rule:nonzero;"/><path d="M479.14,803.622c6.781,4.281 16.219,6.781 24.938,5.531c7.437,0.688 8.906,13.031 8.312,14.063c-0.187,-0.282 -0.344,-0.532 -0.531,-0.75c0.219,0.75 0.406,0.937 0.531,0.75c2.188,3.531 4.438,10.562 10.625,8.875c5.313,5.843 15.125,2.812 11.031,12.75c5.782,7.906 -4.062,17.093 2.719,23.562c-2.937,3.125 -7.156,0.938 -5.969,8.219c-2,5.469 -7.906,7.156 -4.75,14.062c-4.5,9.563 0.625,25.438 -1.187,36.782l2.156,1.187l1,3.406l0.031,0.282c-0.75,0.156 -1.468,0.343 -2.156,0.625c-17.656,-8.157 -35.937,-14.907 -54.406,-20.875c-9.031,-5.875 -18.188,-11.719 -26.656,-18.469c-7.75,-5.375 -14.313,-12.125 -20.782,-18.969c-14.625,-14.281 -26.843,-31.031 -43.312,-43.375c-5.594,-5.469 -13.031,-7.844 -19.781,-11.406c-6.657,-2.438 -9.469,-9.625 -15.407,-13.156c-3.312,-3.532 -7.843,-4.719 -12.437,-5.532c-3.969,0.125 -5.969,-3.125 -8.313,-5.75c-3.187,-0.343 -6.062,-3.687 -5.562,-6.593c5,-0.282 2.844,-5.032 -0.625,-6.157c-6.313,-3.343 -10.188,-9.781 -16.344,-13.187l0.219,-0.375c10.156,-3.813 8.219,-20.5 20.562,-22.938c5.094,-10.5 18.907,-11.312 24.125,-21.656c5.657,-5.719 12.157,-10.344 9.532,-19.562c1.375,-12.782 21.531,-5.063 18.343,-19.782c-0.187,-3.75 3.157,-6.406 2.469,-10.25l-0.062,-0.625c3.375,-0.343 6.906,-0.437 10.062,-1.5c2.094,9.625 8.156,1.532 15.281,1.219c4.375,-5.031 4.657,-0.5 6.219,4.094c4.094,-2.594 5,-1.438 3.563,2.687c6.187,-1.656 10.468,3.688 7.437,10.219c2.563,1.563 2.25,0.281 2.781,6.688c-1.906,6.875 4.438,2.531 1.282,9.843c1.281,9.813 6.312,21.5 -2.313,30.844c-5.469,8.094 5.219,-1.562 9.219,3.594c7.094,1.5 8.625,17.812 17.5,7.625c6.281,2.219 7.469,-2.313 9.25,-7.594c8.594,-3.594 2.906,-19.031 13.625,-18.062c0.875,5.25 3.437,6.5 6.656,6.656l-0.094,1.781c4.75,7.781 3.938,17.969 8.969,26c-1.375,9.5 0.031,21.188 -8.656,27.781c-4.469,4.375 -15.25,10.344 -3.813,13.25c5.407,-1.687 4.969,-2.531 4.719,4.188Z" style="fill:#fcc;fill-rule:nonzero;"/><path d="M352.109,683.997c-0.156,0.344 -0.344,0.656 -0.531,0.969c-2.625,-1.157 -1.75,-1.188 0.531,-0.969Z" style="fill:#fefee4;fill-rule:nonzero;"/><path d="M322.671,452.747c0.032,0.031 0.063,0.062 0.094,0.094c-0.062,0.531 -0.094,1 -0.125,1.437c0,-0.437 0.031,-0.937 0.031,-1.531Z" style="fill:#fefee4;fill-rule:nonzero;"/><path d="M322.609,454.841c-0.063,2.75 -0.156,2.156 0,0Z" style="fill:#fefee4;fill-rule:nonzero;"/><path d="M299.953,294.872c7.187,0.781 22.843,-9.125 16.531,-18.281c0.062,-9.875 5.75,-18.782 9.25,-27.813c7.469,2.875 11.25,-9.812 17.344,-5c4.937,12.813 19.593,17.969 24.906,30.563c4.687,-4.094 8.062,-10.063 12.062,-14.563c7.688,-7 24.532,-3.406 34.375,1.031c10.407,1.907 20.75,-1.343 31.032,-2.562c10.125,3.375 7.062,-7.344 10.031,-12.625c10.094,-6.625 -0.625,7.937 5.531,9.344c71.156,2.281 142.344,3.312 213.469,6.031c3.469,-13.094 6.812,-26.219 10.25,-39.281c9.437,-13.438 -13.438,-14.719 -11.688,-26.532c-4.312,-165.593 -6.237,-40.612 -3.862,-206.237c8.094,0.312 446.331,5.769 456.206,1.269c10.375,0.687 11.438,18.25 24.5,15.781c11.469,1.719 24.094,3.844 32.281,12.906c-4.562,10.844 6.125,23.344 -4.906,31.344c-8.062,11.687 12,19.75 21.156,14.156c12.969,-2.125 25.938,-4.375 38.907,-6.687c-2.063,40.718 -3.469,81.531 -5.219,122.25c-3.875,11.687 -4.219,24.062 -4.094,36.312c-10.875,7.906 -11.406,21.5 -17.344,32.281c1.657,11.938 -10.187,12.094 -16.312,18c-8.625,1.438 -4.625,16.25 -13.656,11.657c-8.282,0.656 -20.219,-8.657 -24.188,1.593c-27.031,-1.375 -54.094,0.344 -81.094,1.469c-9.25,-1.031 -18.75,0.344 -24.531,8.563c-8.469,11.312 -24.656,13.281 -37.031,7.906l-0.25,0c-2.188,1.812 -5.156,2.125 -7.813,1.625c-5.656,-2.75 -7.875,-0.75 -8.718,2.906c-4.188,-1.562 -8.407,-3.125 -12.594,-4.687c-7.188,-2.219 -12.906,-7.719 -20.156,-2.032c-5.875,-3.437 -15.125,-5.75 -22.407,-2.593c-9.968,9.562 -20.812,17.843 -34.718,19.812c-9.532,4.188 -17.375,14.5 -28.75,12.969c-14.563,-4 -5.407,15 -14.313,19c-10.844,-2.313 -24.781,-14.406 -33.375,-0.125c-10.437,4.219 -17.469,15.625 -15.031,26.781c-4.219,8.625 -12.125,0.125 -18.781,-0.531c1.906,0.375 -4.188,13.125 -2.5,17.937c3.312,11.032 -11.157,2.438 -11.157,10c-7.625,9.438 -16.156,-10.343 -25.468,-9.531c-8.157,-0.437 2.312,-4.531 -3.875,-7.125c-4.657,3.969 -13.907,12.094 -16.125,17.031c-13.375,2.532 1.812,12.657 0.218,20.907c2.532,12.406 -14.843,2.187 -15.875,10.281c8.219,6.375 0.032,11.781 2.313,19.562c-2.094,1.094 -7.813,6.438 -8.656,7.813c-1.844,9.562 -15.125,12.75 -24.313,12.406c-8.75,-1.281 -13.375,7.281 -20.812,9.281c-1.438,-1.968 -2.938,-2.5 -3.157,0.375c1.125,0 2.157,-0.125 3.157,-0.375c1.906,2.625 3.625,7.875 1.687,10.719c6.781,7.281 1.344,15.375 -0.062,24.031c-0.282,9.157 -10.938,7.344 -13.688,12.844c4.406,8.063 2.094,15.781 -0.094,23.844c-1.75,3.219 -2.812,7.781 -2.468,11.75l-1.188,0.062c-5.969,-2.5 -14.219,0.375 -19.719,3c-2.156,7.625 -14.343,16.969 -20.937,5.969c3.969,-5.125 4.187,-12.094 0.156,-16.187c6.125,-7.532 -3,-14.219 -10.031,-7.782c3.25,5.719 -3.25,9.407 -8.469,4.782c-3.844,-8.188 -7.969,0.5 -7.094,5.718c5.75,8.407 -3.687,9.282 -9.781,7.625c-11.125,-1.625 -4,9.719 -9.844,12.782c-4.312,-7.782 -16.656,-2.969 -20.062,-10.344c-0.781,11.25 -3.125,-13.969 -10.531,-6.844c-9.875,-3.844 -11.688,8.719 -17.313,13.313c-3.594,2.468 -5.094,2.281 -5.75,0.906c-0.937,-1.844 -0.344,-5.875 -1.344,-8.531c-12.562,-3.813 -1.437,-0.782 -9.968,-6c-12.313,-5.875 -6.094,-23.625 -6.094,-34.375c-5.313,-11.719 -14.063,3.531 -21.406,0.437c2.062,-6.469 8.75,-17.719 15.687,-18.062c6,-0.657 -0.375,-3.594 2.063,-5c-4.532,-6.532 -16.157,-6.875 -17.188,-16.625c-8.937,0.281 -6.656,-7.469 -4.219,-13.407c5.594,-8.937 -8.843,-10.156 -4.468,-18.25c-6.407,-2.968 -2.75,-8 -3.969,-13.25c-3.75,-5.593 -21.875,-12.25 -21.875,-3.5c9.125,8.5 -3.656,10.375 -9.938,12.688c-8.625,0.625 -9.906,16.312 -20.187,8.062c-8.594,-3.281 -18.719,-13.031 -27.875,-6.812c-9.688,0.281 -16.375,25.187 -23.25,10.031c0.469,-10.344 -13.313,-20.187 -18.813,-7.031c-5.312,11.187 -14.25,2.25 -19.906,-3.156c0.469,-4.532 1.625,-11.813 4.438,-14.594l-2.563,-2.031c2.406,0 4.375,-0.657 5.344,-3.219c-8.5,-6.031 1.656,-15.344 -1.188,-23.281c3.563,-5.094 2.094,-5.313 0.313,-9.782c-5.844,-5.281 -5.063,-14.156 -9.25,-20.562c-5.656,-8.5 -9.219,7.187 -13.844,-0.438c3.063,-8.562 -14.156,-13.937 -7.812,-22.656c8.062,-3.531 5.593,-10.312 2.937,-16.406c4.188,-8.313 0.719,-16.813 -5.5,-21.906c-11.031,-7.094 7.313,-16.844 -3.719,-24.157l0.188,-0.468c2.25,1 4.844,1.531 7.844,1.531Z" style="fill:#ebcef2;fill-rule:nonzero;"/><path d="M238.078,733.622l6.437,-2.594l4.938,2.781l1.25,-0.687l-3.438,7.344l-5.75,0.468l-6.719,-2.656l-3,-4.781l6.282,0.125Z" style="fill:#fefee4;fill-rule:nonzero;"/><path d="M211.828,636.747c3.062,-2.719 9.593,5.5 13.593,-4.531c-0.593,-9.969 8.625,-6.25 13.094,-12.438c7.188,-9.375 13.281,-20.219 18.25,-31.187c10.094,-8.344 27.188,7.937 33.031,-6.563c12.438,0.406 25.032,0.25 37.313,0.781c6.906,7.375 13.594,16.157 18.75,25.719c-0.813,10 14.219,12.469 10.281,22.031c-7.937,5.25 -0.594,8.438 4.781,10.438c-2.5,7.937 -0.093,16.062 5.25,22.25c-7.312,5.062 -9.843,13.219 -14.062,20.75c-2.281,-0.219 -3.156,-0.188 -0.531,0.969c0.187,-0.313 0.375,-0.625 0.531,-0.969c3.687,0.344 11,1.219 12.937,-1.438c2.313,-6.5 7.157,-7.687 12.407,-8.25l0.062,0.625c0.688,3.844 -2.656,6.5 -2.469,10.25c3.188,14.719 -16.968,7 -18.343,19.782c2.625,9.218 -3.875,13.843 -9.532,19.562c-5.218,10.344 -19.031,11.156 -24.125,21.656c-12.343,2.438 -10.406,19.125 -20.562,22.938l-0.219,0.375c-0.5,-0.281 -1,-0.531 -1.531,-0.75c-12.906,-7.406 -26.781,-12.781 -40.125,-19.344c-4.438,-1.125 -5.75,-6.062 -5.875,-10.094c0.281,-5.062 -5,-7.5 -7.625,-11.218c-3.938,-5.625 -11.344,-7.344 -14.688,-13.5c-0.937,-4.375 -0.437,-9.282 -0.843,-13.875c-1.657,-2.157 -4.344,-5.407 -7.188,-5.969c-3.687,0.125 -7.781,0.719 -7,-4.313c-1.625,-5.437 0.5,-11.125 4.188,-15.218c3.593,-3.25 -2.657,-4.875 -4.657,-6.688c-0.312,-3.781 -2.093,-7.625 -0.75,-11.344c2.032,-4.125 -0.343,-8.187 -3.062,-11.25c0.344,-3.375 -0.75,-6.031 -1.688,-9.062l0.407,-0.125Z" style="fill:#fffdc0;fill-rule:nonzero;"/><path d="M203.109,194.247c-0.156,-0.125 -0.313,-0.25 -0.469,-0.375c0.031,-0.188 0.188,-0.063 0.469,0.375Z" style="fill:#fefee4;fill-rule:nonzero;"/><path d="M194.234,456.309c-0.156,-0.125 -0.313,-0.281 -0.469,-0.406c0.063,-0.5 0.219,-0.437 0.469,0.406Z" style="fill:#fefee4;fill-rule:nonzero;"/><path d="M198.765,417.247c-1,-0.031 -2,-0.094 -2.969,-0.156c-27.062,-0.875 -54.125,-1.875 -81.187,-3.032c-8.969,5.782 -18.313,11.969 -28.813,14.375c-11.625,0.219 -24.218,-6.406 -35,0.907c-6.062,5.875 -14.406,1.843 -19.437,7.156l-0.125,0.094c-1.094,-1.469 -1.938,-3.313 -2.969,-4.875c-3.062,-3.25 0.656,-7.407 1.125,-11.125c1.094,-10.813 2.031,-21.782 4.813,-32.313l0.375,0.094c1.187,-1.438 1.75,-3.281 2.781,-4.844c7.219,-3 13.812,0.063 22.094,-0.531c7.906,-1.125 18.093,3.469 24.437,-0.563c-1.656,-13.812 14.313,-10.031 22.563,-10.937c10.062,5.25 12.656,-5.844 16.937,-11.719c9.25,4.531 18.25,12.938 28.594,15.219c7.844,1.531 14.844,10.281 24.031,7.094c6.688,-4.969 27.125,-1.688 19.813,-15.032c-8.875,-14.718 -24.782,9.844 -33.719,-2.406c-1.25,-9.5 -8.781,-10.187 -16.125,-7.062c-2.5,-10.344 -15.656,-15.75 -24.969,-9.219c-7.469,-3.469 -16.312,1.406 -16.562,10.281c-19.938,-0.937 -34.625,-1.625 -54.563,-2.187l-0.031,0.031c-1.031,-2.938 -1.875,-5.906 -1.344,-9.031c-1.719,-4.375 -4.969,-8.375 -7.25,-12.594c-2.844,-9.688 -6.281,-19.156 -10.406,-28.344c-3.719,-6.219 -8.656,-11.812 -13.969,-16.781c-3.125,-3.5 0.656,-7.125 2.438,-10.188c6.093,-4.781 11.531,-10.218 16.281,-16.312c6.437,-6.906 11.844,-14.563 16.812,-22.563c4.813,-7.843 10.625,-15.156 15.094,-23.156c0.719,-4.062 1.25,-8.187 1.688,-12.312c1.656,-3.782 2.437,3.062 3.375,-3.782c9.062,-5.718 3.687,-24.093 17.375,-24.125c7.375,4.438 14.156,3.875 23.187,5.282c9.75,-6.313 20.063,-1.657 31.031,-5.219c0.032,-5.906 1.938,-1.688 5.469,-3.063c6.5,-1.281 18.906,3.219 28.25,2.313c11.219,-1.656 16.125,10.219 24.75,17.25c-0.156,1.281 6.781,18.219 14.344,12.656c-1.656,3.563 5.125,3.094 13.656,1.938c-4.531,4.625 4.344,1.437 4.313,5.406c3.343,8.594 6.687,17.125 6.875,25.531c6.5,-0.062 6.625,4.688 8.468,9.313c7.094,-3.032 5.969,4.312 8,8.718c8.094,1.5 -3.187,7.25 3.344,7.907c3.219,5.937 9.25,7.875 15.281,11c4,6.781 8.094,13.968 15.188,17l-0.188,0.468c11.032,7.313 -7.312,17.063 3.719,24.157c6.219,5.093 9.688,13.593 5.5,21.906c2.656,6.094 5.125,12.875 -2.937,16.406c-6.344,8.719 10.875,14.094 7.812,22.656c4.625,7.625 8.188,-8.062 13.844,0.438c4.187,6.406 3.406,15.281 9.25,20.562c1.781,4.469 3.25,4.688 -0.313,9.782c2.844,7.937 -7.312,17.25 1.188,23.281c-0.969,2.562 -2.938,3.219 -5.344,3.219c-4.594,0 -10.75,-2.313 -14.656,1.437c-9.938,-0.219 -20.625,-3.656 -29.594,2.656c-7.625,3.75 -10.594,-7.156 -18.531,-3.093c-5.844,-4.125 -14.25,-6 -19.281,-10.25c-4.25,7.75 -10,1.562 -7.282,-5c-10.875,-3.5 -24.25,-4.094 -36.531,-4.719Z" style="fill:#fffdc0;fill-rule:nonzero;"/><path d="M105.149,-8.259c2.25,-6.438 573.547,0.312 565.454,0c-2.375,165.625 -1.869,37.85 2.443,203.443c-1.75,11.813 21.125,13.094 11.688,26.532c-3.438,13.062 -6.781,26.187 -10.25,39.281c-71.125,-2.719 -142.313,-3.75 -213.469,-6.031c-6.156,-1.407 4.563,-15.969 -5.531,-9.344c-2.969,5.281 0.094,16 -10.031,12.625c-10.282,1.219 -20.625,4.469 -31.032,2.562c-9.843,-4.437 -26.687,-8.031 -34.375,-1.031c-4,4.5 -7.375,10.469 -12.062,14.563c-5.313,-12.594 -19.969,-17.75 -24.906,-30.563c-6.094,-4.812 -9.875,7.875 -17.344,5c-3.5,9.031 -9.188,17.938 -9.25,27.813c6.312,9.156 -9.344,19.062 -16.531,18.281c-3,0 -5.594,-0.531 -7.844,-1.531c-7.094,-3.032 -11.188,-10.219 -15.188,-17c-6.031,-3.125 -12.062,-5.063 -15.281,-11c-6.531,-0.657 4.75,-6.407 -3.344,-7.907c-2.031,-4.406 -0.906,-11.75 -8,-8.718c-1.843,-4.625 -1.968,-9.375 -8.468,-9.313c-0.188,-8.406 -3.532,-16.937 -6.875,-25.531c0.031,-3.969 -8.844,-0.781 -4.313,-5.406c-8.531,1.156 -15.312,1.625 -13.656,-1.938c-7.563,5.563 -14.5,-11.375 -14.344,-12.656c0.156,0.125 0.313,0.25 0.469,0.375c-0.281,-0.438 -0.438,-0.563 -0.469,-0.375c-8.625,-7.031 -13.531,-18.906 -24.75,-17.25c-9.344,0.906 -21.75,-3.594 -28.25,-2.313c-3.531,1.375 -5.437,-2.843 -5.469,3.063c-10.968,3.562 -21.281,-1.094 -31.031,5.219c-9.031,-1.407 -15.812,-0.844 -23.187,-5.282c-13.688,0.032 -8.313,18.407 -17.375,24.125c-0.938,6.844 -1.719,0 -3.375,3.782c0.656,-5.532 1.156,-11.094 1.906,-16.625c0.5,-8.563 2.594,-16.813 5.094,-25c1.343,-6.282 3.625,-12.219 7.031,-17.688c6.562,-11.656 12.531,-23.625 17.687,-35.969c2.594,-10.593 4.594,-21.468 6.407,-32.25c2.531,-11.656 2.125,-23.593 2.593,-35.468c0.844,-4.532 -0.687,-8.688 -2.468,-12.813c-5.875,-6.406 -9.407,-14.375 -13.657,-21.844c-1.75,-2.531 -4.156,-8.187 1.094,-5.437c3.813,-4.031 7.259,-5.756 10.259,-10.381Z" style="fill:#e8f2ad;fill-rule:nonzero;"/><path d="M68.984,510.028l-3.438,3.906l-9.093,5.032l-1.875,-6.625l7.625,-3.094l6.781,0.781Z" style="fill:#fefee4;fill-rule:nonzero;"/><path d="M62.328,368.372c-2,2.125 -4.469,4.531 -7.532,5.562c-2.687,-2.437 -1.781,-6.156 -2.625,-9.312c-0.343,-2.781 -1.406,-5.438 -2.312,-8.125l0.031,-0.031c19.938,0.562 34.625,1.25 54.563,2.187c0.25,-8.875 9.093,-13.75 16.562,-10.281c9.313,-6.531 22.469,-1.125 24.969,9.219c7.344,-3.125 14.875,-2.438 16.125,7.062c8.937,12.25 24.844,-12.312 33.719,2.406c7.312,13.344 -13.125,10.063 -19.813,15.032c-9.187,3.187 -16.187,-5.563 -24.031,-7.094c-10.344,-2.281 -19.344,-10.688 -28.594,-15.219c-4.281,5.875 -6.875,16.969 -16.937,11.719l1.781,-3.438c0.625,0.344 1.312,0.563 2.187,0.438c2.125,1.469 4.563,-2.719 3.375,-2.688c-1.468,3.625 -5.906,1.438 -7.812,-0.625c-1.094,-2.125 -3.531,0.282 -4.781,-1.875c-2.313,-2.625 -3.75,2.594 -5.875,1.969c-2.219,-3.406 -5.344,1.469 -8.282,1.219c-4.312,-0.406 -8.5,0.187 -12.781,0.562c-2.375,-0.906 -5.094,1.625 -6.781,-0.718c-1.781,-0.532 -3.469,1.281 -5.156,2.031Z" style="fill:#ffdea9;fill-rule:nonzero;"/><path d="M52.546,445.309c-5.593,-1.843 -11.156,-3.75 -16.625,-5.843c-2.156,-0.25 -3.562,-1.375 -4.687,-2.875l0.125,-0.094c5.031,-5.313 13.375,-1.281 19.437,-7.156c10.782,-7.313 23.375,-0.688 35,-0.907c10.5,-2.406 19.844,-8.593 28.813,-14.375c27.062,1.157 54.125,2.157 81.187,3.032c0.969,0.062 1.969,0.125 2.969,0.156c-2.812,6.687 5.156,12.562 1.094,19.875c-1.781,8.562 -8.531,2.344 -12.531,5.406c-11.032,3.813 1.625,9.438 6.437,13.375c-0.469,2.938 1.344,26.313 -7.344,17.375c-2.812,10.906 -18,2.375 -24.75,5.094c-7.843,10.687 -24.031,3.375 -29.406,15.719c-4.937,9.5 -10.156,22.343 -19.312,28.968c1.125,-4.062 1.25,-8.531 4.25,-11.656c-4.813,0.688 -9.657,1.844 -14.219,-0.406c-1.719,-3.313 -4.438,-6.281 -4.406,-10.219c-1.907,-5.125 1.875,-9.562 3,-14.469c-0.75,-3.781 -3.688,-7.312 -4.125,-11.437c-0.063,-3.031 5.218,-4.125 7.218,-6.406c7.844,-3.75 16.875,-2.188 25.313,-2.875c2.094,-4.157 1.937,-6.532 -3.219,-4.907c-7.906,1.219 -16.156,0.25 -23.812,2.657c-9.063,2.125 -16.625,8.812 -26.157,9.031c-4.593,0.719 -5.343,-3.406 -4.656,-7.094c1.344,-5.187 -4.812,-1.312 -7.625,-2.656c-3.156,-1.313 -7.937,-0.406 -9.812,-3.469c-3.438,-3.844 -2.469,-9.125 -2.157,-13.844Z" style="fill:#ffdea9;fill-rule:nonzero;"/><path d="M61.39,375.466c-1.469,2.812 1.281,3.593 3.188,1.781c1.218,-1.813 -4.219,2.344 -2.25,-1.531c-1.063,-1.719 -1.282,-4.063 0.531,-5.5c2.031,-0.407 2.344,-3.75 4.656,-1.813c4.063,1.656 7.875,-0.469 12.063,0.063c2,-0.532 3.312,-1.157 5.406,-0.469c2.969,0.375 5.969,-1 8.562,-1.969c1.407,2.188 4.032,1.031 5.063,-0.844c1.437,-3.187 3.437,1.5 5.469,-0.093c1.687,0.312 2.687,2.093 4.156,2.968l-1.781,3.438c-8.25,0.906 -24.219,-2.875 -22.563,10.937c-6.344,4.032 -16.531,-0.562 -24.437,0.563c-8.282,0.594 -14.875,-2.469 -22.094,0.531c-1.031,1.563 -1.594,3.406 -2.781,4.844l-0.375,-0.094c0.031,-0.156 0.093,-0.312 0.125,-0.469c-0.688,-4.406 -1.719,-8.812 0.468,-12.968c0.938,-3.407 1.563,-7.032 5.219,-8.5c1.875,2.75 3.156,6 5.875,8.031c1.906,2.781 6.281,4.281 8.969,2.531c1.312,-1.625 5.437,-4.594 6.531,-1.437Z" style="fill:#ffdea9;fill-rule:nonzero;"/><path d="M68.994,510.022l-6.796,-0.772l-7.619,3.075l1.865,6.65l9.088,-5.041l3.462,-3.912Z" style="fill:none;fill-rule:nonzero;stroke:#0978ab;stroke-width:3.13px;"/><path d="M250.691,733.116l-1.237,0.693l-4.956,-2.793l-6.41,2.597l-6.284,-0.107l2.99,4.753l6.704,2.675l5.775,-0.471l3.418,-7.347Z" style="fill:none;fill-rule:nonzero;stroke:#0978ab;stroke-width:3.13px;"/><path d="M1489.85,1259.58c1.515,3.529 172.372,3.791 173.497,0c10.359,-14.771 9.234,-1262.06 0,-1267.84c-5.41,-2.741 -1558.07,-6.428 -1560.33,0c-3.019,4.612 -4.31,6.331 -8.11,10.368c-5.25,-2.734 -2.872,2.91 -1.106,5.425c4.241,7.491 7.775,15.435 13.659,21.844c1.76,4.122 3.319,8.281 2.469,12.835c-0.484,11.853 -0.066,23.787 -2.594,35.45c-1.825,10.793 -3.806,21.65 -6.397,32.246c-5.165,12.357 -11.143,24.316 -17.696,35.994c-3.425,5.463 -5.7,11.388 -7.05,17.678c-2.491,8.175 -4.597,16.428 -5.088,24.991c-1.316,9.619 -1.878,19.419 -3.6,28.937c-4.456,8.007 -10.278,15.313 -15.084,23.172c-4.953,8 -10.363,15.657 -16.8,22.541c-4.769,6.094 -10.194,11.541 -16.278,16.328c-1.788,3.069 -5.563,6.694 -2.457,10.175c5.307,4.972 10.272,10.578 13.985,16.784c4.128,9.207 7.547,18.675 10.387,28.354c2.291,4.228 5.553,8.228 7.253,12.587c-1.034,5.944 2.95,11.316 3.663,17.15c0.847,3.169 -0.072,6.894 2.622,9.328c3.059,-1.028 5.528,-3.45 7.54,-5.556c1.697,-0.763 3.363,-2.591 5.138,-2.034c1.719,2.337 4.434,-0.194 6.794,0.706c4.287,-0.36 8.478,-0.978 12.784,-0.572c2.928,0.259 6.053,-4.622 8.269,-1.197c2.131,0.613 3.581,-4.616 5.872,-1.975c1.278,2.15 3.7,-0.247 4.809,1.881c1.906,2.038 6.331,4.25 7.797,0.625c1.175,-0.034 -1.238,4.132 -3.378,2.669c-2.966,0.422 -3.922,-2.953 -6.344,-3.416c-2.022,1.604 -4.019,-3.093 -5.45,0.097c-1.056,1.888 -3.669,3.038 -5.078,0.86c-2.581,0.968 -5.588,2.337 -8.572,1.953c-2.088,-0.669 -3.406,-0.066 -5.403,0.469c-4.166,-0.529 -7.985,1.59 -12.063,-0.066c-2.306,-1.916 -2.6,1.409 -4.656,1.822c-1.803,1.425 -1.597,3.794 -0.516,5.494c-1.981,3.878 3.469,-0.279 2.25,1.528c-1.906,1.837 -4.662,1.056 -3.19,-1.76c-1.097,-3.172 -5.222,-0.197 -6.522,1.438c-2.703,1.734 -7.088,0.244 -8.978,-2.541c-2.722,-2.047 -3.994,-5.284 -5.878,-8.022c-3.66,1.46 -4.282,5.088 -5.232,8.485c-2.181,4.156 -1.14,8.572 -0.456,12.959c-2.872,10.713 -3.819,21.816 -4.947,32.794c-0.44,3.715 -4.184,7.862 -1.122,11.125c2.085,3.15 3.357,7.287 7.657,7.74c5.487,2.107 11.04,4.022 16.622,5.866c-0.313,4.719 -1.26,9.981 2.168,13.819c1.888,3.072 6.672,2.153 9.825,3.484c2.797,1.344 8.947,-2.525 7.6,2.656c-0.687,3.679 0.066,7.807 4.663,7.1c9.547,-0.218 17.097,-6.915 26.159,-9.043c7.66,-2.41 15.919,-1.438 23.816,-2.669c5.165,-1.622 5.328,0.747 3.225,4.925c-8.441,0.681 -17.485,-0.884 -25.328,2.875c-1.994,2.281 -7.269,3.375 -7.203,6.403c0.446,4.113 3.375,7.659 4.106,11.447c-1.106,4.884 -4.897,9.319 -2.978,14.462c-0.041,3.929 2.687,6.888 4.384,10.21c4.588,2.253 9.428,1.103 14.238,0.4c-3.394,3.503 -3.147,8.765 -4.679,13.169c1.557,3.071 4.019,5.509 6.147,8.175c3.775,-0.272 6.503,-2.05 8.028,-5.547c2.56,-2.766 4.16,-7.407 8.513,-7.297c-1.288,4.45 -1.109,8.881 0.228,13.297c-1.694,4.028 3.303,5.193 6.359,5.453c5.519,-1.369 1.641,3.99 2.375,7.062c-0.334,7.632 2.357,14.847 6.113,21.375c1.834,3.641 6.603,4.563 9.372,7.497c4.625,3.469 8.922,7.55 14.784,8.722c5.144,4.981 10.228,10.013 13.991,16.166c2.815,2.197 6.431,3.922 6.006,8.068c-0.269,6.116 6.619,8.432 8.809,13.494c2.163,5.119 7.172,8.597 7.729,14.388c0.975,3.634 2.525,6.625 2.118,10.503c2.735,3.087 5.116,7.14 3.066,11.259c-1.356,3.722 0.453,7.56 0.75,11.344c2,1.806 8.237,3.437 4.672,6.684c-3.7,4.091 -5.841,9.788 -4.194,15.228c-0.784,5.029 3.3,4.444 6.984,4.319c2.838,0.569 5.55,3.816 7.197,5.978c0.4,4.575 -0.109,9.478 0.841,13.86c3.331,6.147 10.75,7.887 14.697,13.509c2.603,3.706 7.894,6.163 7.619,11.2c0.121,4.05 1.443,8.991 5.881,10.109c13.34,6.544 27.222,11.925 40.128,19.347c7.072,3.113 11.059,10.347 17.862,13.928c3.482,1.138 5.632,5.891 0.616,6.172c-0.472,2.9 2.384,6.247 5.569,6.569c2.353,2.631 4.35,5.878 8.306,5.75c4.613,0.813 9.144,2.019 12.447,5.547c5.941,3.534 8.75,10.716 15.403,13.156c6.766,3.55 14.206,5.931 19.772,11.4c16.478,12.328 28.697,29.106 43.331,43.391c6.466,6.837 13.013,13.581 20.778,18.959c8.45,6.731 17.619,12.591 26.647,18.447c18.488,5.994 36.763,12.738 54.403,20.903c5.585,-2.215 12.441,0.01 17.278,-4.219c8.147,-5.703 18.054,-8.034 26.26,-13.584c13.556,-5.456 27.203,-10.794 41.206,-14.95c6.772,-3.475 13.209,-7.822 20.9,-8.884c7.169,-1.36 14.341,-4.722 21.709,-3.172c14.675,-3.531 29.86,-4.172 44.766,-6.366c12.897,-1.881 25.859,-2.981 38.888,-3.29c7.184,-1.038 13.196,4.556 20.234,5.171c10.991,1.629 21.666,4.675 32.359,7.529c8.641,0.931 17.447,1.515 25.863,3.65c12.175,3.631 23.478,9.59 35.397,13.943c9.831,-4.515 20.465,-8.4 27.953,-16.531c3.487,-3.947 9.178,-4.494 13.944,-6.134c11.159,-2.807 22.518,-5.113 33.709,-7.519c16.3,-10.319 33.134,-19.984 50.716,-27.875c7.837,-2.391 15.881,-3.597 24.04,-4.159c3.635,-0.469 1.431,-1.31 1.16,-3.379c-0.722,-2.25 1.246,-4.759 -0.722,-6.893c-0.825,-2.732 -3.044,-4.728 -5.853,-5.375c-1.013,-2.2 -3.591,-2.091 -5.235,-3.666c-2.281,0.256 -3.234,4.753 -6.1,2.172c-2.437,-0.541 -4.309,-3.972 -6.912,-3.519c2.356,-2.187 4.668,0.775 6.234,2.294c2.088,0.322 4.266,1.15 5.013,-1.534c2.825,-0.5 5.993,0.928 7.725,3.156c3.946,2 7.725,6.209 6.721,10.894c-0.806,1.737 2.26,3.593 2.085,4.74c-0.891,0.569 6.09,-2.219 6.956,1.525c2.309,3.25 6.447,0.019 9.65,0.091c3.691,-0.456 4.622,-5.228 7.094,-7.588c2.687,-3.203 4.834,-7.143 7.847,-9.915c6.512,-2.925 13.215,-5.219 20.168,-6.885c12.46,-3.34 25.038,-6.809 38.05,-6.593c11.657,-0.282 23.141,-3.041 34.825,-2.907c7.047,-0.859 14.21,-0.4 21.285,-1.322c14.703,-1.018 29.494,-2.631 44.219,-1.618c9.359,1.437 19.021,0.597 28.059,3.8c5.891,1.99 10.678,6.506 16.419,9.015c3.968,2.141 8.306,3.85 10.39,8.147c2.841,3.803 5.966,7.45 7.163,12.156c4.509,-0.618 5.562,3.019 6.665,6.594c1.844,2.769 5.013,4.691 5.372,8.36c1.591,2.921 1.06,7.959 5.25,8.284c1.897,1.812 9.066,1.316 7.869,2.378c-3.353,1.691 -6.097,3.694 -4.669,7.813c-0.297,9.475 3.307,18.387 5.225,27.54c6.947,5.981 13.444,12.678 17.303,21.103c1.941,2.785 6.454,2.372 9.441,3.857c4.816,2.34 10.019,0.165 15.053,-0.094c1.144,2.931 1.288,8.037 3.053,9.615c6.225,-3.05 12.475,-6.053 18.463,-9.556c2.169,4.966 5.306,-3.159 8.3,0.853c3.319,3.991 5.253,-1.543 8.887,-0.806c3.841,-0.841 5.966,-4.044 8.113,-7.059c4.553,-1.128 6.044,-5.669 8.494,-9.141c8.587,2.834 16.646,7.419 25.043,10.422c12.078,-1.703 24.285,-1.213 36.422,-0.547c0.788,-6.578 1.01,-13.303 4.235,-19.262c0.156,-4.832 5.625,-1.669 7.565,0.14c1.456,3.122 4.513,5.669 5.706,8.628c-0.984,3.325 -1.35,7.038 2.744,8.119c2.931,2.759 6.313,-1.978 9.831,-0.744c3.05,0.628 8.325,-1.837 8.544,2.732c2.747,8.153 5.403,16.74 10.481,23.643c6.729,3.657 13.969,6.928 21.279,8.797c4.565,0.731 4.753,-3.631 7.103,-5.097c3.475,-0.518 6.99,-1.165 9.35,2.066c0.065,4.659 1.675,10.394 -1.994,13.903c-4.472,-0.244 -4.184,4.975 -1.669,7.272c3.569,4.091 5.072,9.494 9.453,12.891c3.51,3.225 6.041,7.287 8.944,11.025c-3.569,3.603 -1.737,9.209 -3.862,13.575c-3.841,13.075 -6.688,26.525 -6.672,40.203c-2.116,6.518 -2.403,13.331 -2.15,20.14c-3.31,6.853 -7.894,13.247 -8.641,21.019c-1.022,9.506 -9.441,15.691 -12.903,24.2c4.978,3.059 9.959,6.113 14.934,9.169c2.26,3.453 -2.868,6.465 -2.5,6.419c-0.347,5.218 0.785,10.643 0.241,15.715c-1.434,3.753 -3.9,5.813 -8.034,5.144c-3.638,-0.903 -5.579,5.087 -3.488,7.419c3.569,7.175 10.813,11.25 17.066,15.812c4.472,1.238 9.734,0.772 13.012,4.581c-1.622,4.038 -5.403,3.154 -8.925,2.857c-5.694,0.243 -11.256,-1.507 -16.253,-3.966c-2.519,-2.556 -4.65,-5.859 -8.687,-5.466c-1.566,1.75 -0.516,6.707 -1.116,9.638c-0.369,10.181 -1.088,20.328 -2.803,30.381c-4.8,3.738 -9.328,7.728 -12.388,13.069c-2.006,3.925 -6.953,4.584 -10.737,5.987c-5.944,-0.681 -1.163,3.713 0.081,6.432c3.631,8.25 6.922,11.9 10.469,20.168Z" style="fill:none;fill-rule:nonzero;stroke:#0978ab;stroke-width:3.13px;"/><path d="M1514.84,1005.23l-12.806,-43.837l-38.984,-14.457l-32.741,53.269l27.031,60.372l-20.859,37.244" style="fill:none;fill-rule:nonzero;stroke:#646464;stroke-width:5.47px;stroke-linecap:round;stroke-dasharray:15.63,15.63;"/><path d="M1289.59,1213.19l60.538,19.462l37.425,-56.747" style="fill:none;fill-rule:nonzero;stroke:#646464;stroke-width:5.47px;stroke-linecap:round;stroke-dasharray:15.63,15.63;"/><path d="M1663.35,1052.3c-9.775,-0.697 -2.888,1.844 -12.469,-0.097c-8.591,-1.497 -21.069,-2.619 -23.763,7.95c-13.228,0.019 -27.025,-0.228 -40.478,-0.1c-13.997,-1.091 -31.347,2.406 -44.734,-2.134c-4.36,-1.119 -7.169,-10.307 -8.56,-12.978" style="fill:none;fill-rule:nonzero;stroke:#646464;stroke-width:5.47px;stroke-linecap:round;"/><path d="M1098.67,-17.341c7.772,6.704 16.838,12.063 26.703,7.541c10.385,0.688 11.466,18.25 24.519,15.803c11.472,1.719 24.103,3.838 32.278,12.885c-4.575,10.846 6.138,23.371 -4.897,31.362c-8.068,11.678 11.994,19.731 21.138,14.147c42.534,-7 84.853,-15.213 127.294,-22.744c32.1,-26.369 27.343,-29.4 59.468,-55.744" style="fill:none;fill-rule:nonzero;stroke:#646464;stroke-width:5.47px;stroke-linecap:round;"/><path d="M1013.6,297.756c-2.162,1.81 -5.14,2.122 -7.812,1.603c-12.591,-6.068 -8.031,11.191 -10.056,18.179c-11.591,13.393 16.181,18.521 7.312,31.162c1.341,7.816 6.166,15.194 11.725,20.803c-1.572,7.391 7.297,4.691 10.731,8.01c11.428,-0.004 11.935,13.896 22.085,14.931c9.206,2.731 0.953,4.428 -3.872,4.619c-9.638,-8.163 -7.513,8.593 -8.006,14.29c4.578,5.888 13.256,7.097 18.259,14.188c8.2,8.528 18.925,17.731 31.316,13.534c5.796,-10.331 20.112,-4.875 20.775,5.881c7.684,10.219 -13.494,3.997 -8.657,13.078c5.707,7.263 10.107,15.46 15.819,22.719c1.247,3.494 6.909,-5.275 2.481,-8.162c-7.356,-11.135 6.572,-13.26 14.65,-13.869c6.772,-7.928 15.519,-3.681 20.475,4.019c10.528,7.772 13.735,21.965 27.288,24.618c-0.456,8.679 15.122,8.025 7.515,0.285c1.054,-10.46 1.922,-21.381 2.575,-32.531c-3.034,-11.919 10.166,-14.847 16.675,-21.529c7.016,-8.29 12.657,-18.462 12.744,-29.584c-4.444,-12.162 7.544,-13.997 13.994,-20.6c5.381,-7.737 15.712,-6.222 23.706,-9.094c10.569,-0.947 26.81,6.307 34.781,-5.078c10.785,-5.509 20.113,4.556 30.194,7.163c8.969,6.837 20.15,0.625 28.303,7.49c7.175,7.06 15.207,13.885 19,23.491c2.957,7.934 11.313,16.544 20.388,12.219c3.84,-6.685 11.156,-6.319 17.475,-6.025c10.444,-4.232 19.353,-15.669 31.397,-12.788c14.287,-0.712 20.656,15.3 34.006,15.96c7.712,8.521 19.062,12.756 30.681,13.462c11.406,-0.212 24.331,5.006 34.6,0.1c9.291,-10.816 19.328,-22.712 33.928,-25.9c12.069,0.063 23.178,-7.562 35.328,-5.297c11.232,3.316 22.785,-1.115 34.066,0.669c11.931,3.294 24.719,5.831 34.428,14.025" style="fill:none;fill-rule:nonzero;stroke:#646464;stroke-width:5.47px;stroke-linecap:round;"/><path d="M1013.87,297.759c12.378,5.363 28.55,3.394 37.028,-7.918c5.775,-8.21 15.266,-9.591 24.516,-8.572c27.003,-1.103 54.069,-2.847 81.1,-1.475c3.987,-10.222 15.915,-0.922 24.197,-1.588c9.012,4.616 5.031,-10.197 13.643,-11.637c6.125,-5.906 17.985,-6.072 16.313,-18.028c5.944,-10.763 6.462,-24.375 17.362,-32.282c-0.121,-12.234 0.207,-24.618 4.082,-36.296c1.75,-40.729 3.172,-81.519 5.234,-122.25" style="fill:none;fill-rule:nonzero;stroke:#646464;stroke-width:5.47px;stroke-linecap:round;"/><path d="M1114.24,482.591c-2.872,12.528 -14.159,18.778 -22.697,27.003c-8.687,-1.122 -17.525,2.169 -25.787,0.834c-5.76,-8.119 -15.975,11.931 -15.032,7.135c-3.803,-2.213 -2.4,5.69 -7.678,1.362c-5.05,0.619 -0.406,7.369 -7.015,7.947c3.853,9.775 -2.21,2.962 -6.157,3.916c-2.978,9.44 -17.037,-0.263 -24.109,6.128c-8.784,-6.397 -22.475,-6.591 -33.684,-9.9c-6.469,-0.457 -14.016,-6.335 -16.338,1.24c-6.703,-2.172 -8.787,6.778 -15.781,7.697c-3.841,5.547 -6.991,-7.475 -13.544,-2.222c-8.797,-2.028 -17.987,-0.453 -27.072,-0.781c-12.5,-3.772 -24.831,1.163 -37.722,-0.572c-14.497,-0.044 -29.153,-0.978 -43.515,-0.222c-10.05,-3.253 -7.194,9.113 -12.325,14.682c-3.294,7.35 1.106,16.028 6.247,20.131c-8.507,4.8 5.175,9.556 -1.45,16.244c0.759,8.068 3.862,16.881 -0.425,24.753c1.987,4.893 8.712,17.968 4.671,14.375c-6.315,11.278 -12.656,-6.788 -14.959,-12.653c-6.584,-2.207 -17.178,-15.635 -13.441,-13.044c-5.537,5.922 -12.228,-5.297 -19.95,-1.591c-8.675,-3.037 -18.456,0.985 -25.703,5.538c-8.34,-0.491 -16.406,4.134 -18.818,12.412c-5.272,1.328 -2.482,0.128 -8.222,-2.581c-4.507,0.237 -1.772,-8.522 -6.825,-2.963c-6.057,0.357 -5.194,2.888 -10.097,-3.321c-3.344,-3.272 -6.613,-3.966 -1.572,0.325c2.9,-9.122 -14.019,-5.379 -9.588,-15.354c-4.968,-9.337 -2.662,-2.337 -6.168,-10.353c-0.6,-3.972 -4.847,-11.078 -12.872,-8.037c-12.503,2.481 -12.131,-12.331 -8.063,-19.85c2.197,-8.066 4.51,-15.769 0.091,-23.828c2.737,-5.519 13.387,-3.7 13.681,-12.85c1.397,-8.669 6.856,-16.738 0.056,-24.019c3.382,-4.991 -4.337,-17.147 -4.821,-10.35c9.412,0.122 14.021,-11.134 23.95,-9.653c9.196,0.325 22.462,-2.872 24.318,-12.413c1.169,-1.928 11.575,-11.275 9,-6.806c-3.343,-8.347 5.9,-13.919 -2.668,-20.594c1.053,-8.078 18.412,2.15 15.875,-10.278c1.609,-8.228 -13.575,-18.369 -0.213,-20.894c2.244,-4.94 11.475,-13.078 16.15,-17.018c6.172,2.575 -4.303,6.662 3.859,7.097c9.316,-0.791 17.847,18.971 25.457,9.55c0.006,-7.566 14.484,1.018 11.168,-10.007c-1.765,-4.993 4.854,-18.49 2.282,-17.953c6.693,0.497 14.731,9.26 18.997,0.55c-2.432,-11.165 4.59,-22.559 15.015,-26.794c8.606,-14.268 22.535,-2.165 33.391,0.141c8.909,-4.009 -0.244,-23.016 14.328,-19c11.356,1.522 19.197,-8.794 28.75,-12.969c13.903,-1.965 24.75,-10.25 34.706,-19.822c7.278,-3.159 16.525,-0.837 22.41,2.604c7.25,-5.679 12.965,-0.185 20.15,2.028" style="fill:none;fill-rule:nonzero;stroke:#646464;stroke-width:5.47px;stroke-linecap:round;"/><path d="M1037.27,828.719c-0.787,-8.238 -12.484,-7.435 -12.975,-14.878c-7.834,-3.575 -16.409,-8.788 -16.909,-17.669c-5.591,-3.259 -3.707,-11.028 -9.394,-15.066c2.512,-5.234 -4.063,-8.768 4.025,-10.756c-1.134,-7.8 9.662,-22.337 -3.119,-22.975c-6.228,-9.719 8.722,-16.656 5.072,-27.387c-0.047,-8.879 -4.541,-20.835 6.084,-24.807c2.072,-13.412 -18.781,-15.437 -17.375,-28.687c10.107,-1.556 5.057,-11.197 4.147,-17.41c2.772,-7.825 11.1,-23.615 -2.25,-25.675c-3.059,0.338 -9.393,8.36 -10.465,1.363c8.872,-0.65 -6.253,-6.091 3.581,-5.916c6.897,-0.487 -4.788,-3.965 -1.05,-2.668c-2.509,-5.013 8.653,-0.563 4.1,-8.6c0.134,-9.497 5.453,-17.032 1.653,-25.975c5.828,-7.788 -5.822,-11.632 -10,-14.847c-2.812,-8.803 -20.669,-10.328 -10.959,-21.575c2.109,-5.825 9.512,-19.832 -2.828,-17.007c-1.447,-0.137 -2.638,-1.237 -3.004,-2.593" style="fill:none;fill-rule:nonzero;stroke:#646464;stroke-width:5.47px;stroke-linecap:round;"/><path d="M973.756,538.538l0.003,-0.1" style="fill:none;fill-rule:nonzero;stroke:#646464;stroke-width:5.47px;stroke-linecap:round;"/><path d="M1124.41,812.966c1.597,-12.825 5.531,-26.344 1.537,-38.769c5.644,-8.375 -1.021,-21.047 4.297,-30.653c-6.437,-7.738 -1.137,-17.172 -5.415,-25.838c4.993,-11.64 -0.372,-23.397 4.322,-34.628c-0.797,-9.397 0.353,-18.325 2.018,-27.469c2.5,-11.262 21.997,0.285 21.763,-14.859c2.462,-7.522 -1.797,-15.403 6.428,-20.45c0.941,-5.112 9.703,-4.944 5.331,-11.544c3.997,-6.972 17.741,-2.625 16.931,-14.487c4.969,-5.425 3.357,-10.353 -1.14,-15.535c0.281,-6.128 5.878,-11.55 11.525,-8.278c5.578,-7.49 4.481,-16.603 -1.356,-23.572c3.106,-11.059 -3.535,-21.015 -10.56,-29.278c-7.44,-6.906 -1.15,-15.793 3.441,-22.278" style="fill:none;fill-rule:nonzero;stroke:#646464;stroke-width:5.47px;stroke-linecap:round;"/><path d="M1026.92,534.8c-2.603,12.228 -10.268,22.419 -9.04,35.459c6.878,8.604 17.428,13.841 26.406,20.191c12.563,6.647 2.513,24.534 6.2,34.15c-1.072,13.194 15.75,18.003 13.313,31.319c0.287,10.184 -0.375,20.34 0.353,30.472c-1.4,11.765 -0.335,24.378 -0.891,36.537c-0.041,11.666 0.203,23.297 -0.637,34.95c-0.632,5.872 2.184,14.913 -5.175,15.922c6.3,8.081 -2.657,18.169 5.893,24.872c5.619,5.291 11.128,17.35 0.153,18.791l-1.684,0.809l0.497,2.437" style="fill:none;fill-rule:nonzero;stroke:#646464;stroke-width:5.47px;stroke-linecap:round;"/><path d="M984.484,297.588c4.384,1.637 8.772,3.278 13.156,4.912" style="fill:none;fill-rule:nonzero;stroke:#646464;stroke-width:5.47px;stroke-linecap:round;"/><path d="M668.912,-8.259c-2.363,165.628 -0.166,37.84 4.125,203.428c-1.731,11.812 21.125,13.109 11.7,26.531c-3.438,13.091 -6.8,26.203 -10.253,39.291c-71.141,-2.7 -142.328,-3.753 -213.478,-6.022c-6.153,-1.416 4.578,-15.985 -5.51,-9.36c-2.972,5.279 0.075,16.022 -10.034,12.65c-10.281,1.219 -20.644,4.46 -31.053,2.541c-9.85,-4.447 -26.694,-8.031 -34.363,-1.019c-4.018,4.491 -7.372,10.463 -12.081,14.541c-5.303,-12.594 -19.95,-17.744 -24.897,-30.534c-6.1,-4.844 -9.869,7.85 -17.34,4.981c-3.507,9.034 -9.179,17.931 -9.254,27.815c6.31,9.15 -9.343,19.057 -16.54,18.282c-12.316,0.068 -17.719,-9.575 -23.013,-18.528c-6.047,-3.129 -12.065,-5.057 -15.275,-11.004c-6.537,-0.653 4.732,-6.412 -3.368,-7.887c-2.01,-4.428 -0.879,-11.781 -7.975,-8.747c-1.86,-4.619 -1.991,-9.362 -8.466,-9.3c-0.2,-8.4 -3.563,-16.95 -6.884,-25.528c0.015,-3.978 -8.838,-0.794 -4.329,-5.419c-8.512,1.169 -15.315,1.628 -13.656,-1.912c-8.544,6.281 -16.29,-16.216 -13.862,-12.285c-8.919,-6.984 -13.813,-19.315 -25.225,-17.625c-9.335,0.9 -21.75,-3.609 -28.235,-2.328c-3.55,1.378 -5.443,-2.853 -5.497,3.069c-10.953,3.569 -21.278,-1.103 -31.006,5.209c-9.05,-1.4 -15.822,-0.853 -23.194,-5.29c-13.696,0.047 -8.331,18.431 -17.384,24.134c-0.969,6.981 -1.744,-0.2 -3.431,3.988" style="fill:none;fill-rule:nonzero;stroke:#646464;stroke-width:5.47px;stroke-linecap:round;"/><path d="M49.878,356.472c19.953,0.547 34.628,1.237 54.565,2.169c0.247,-8.85 9.097,-13.741 16.56,-10.266c9.337,-6.547 22.465,-1.144 24.968,9.213c7.353,-3.141 14.878,-2.435 16.147,7.056c8.919,12.25 24.841,-12.294 33.71,2.425c7.321,13.34 -13.113,10.04 -19.8,15.015c-9.216,3.179 -16.213,-5.553 -24.047,-7.081c-10.335,-2.3 -19.353,-10.706 -28.603,-15.215c-4.279,5.853 -6.869,16.95 -16.929,11.715c-8.243,0.91 -24.209,-2.887 -22.571,10.913c-6.319,4.056 -16.535,-0.547 -24.422,0.584c-8.291,0.594 -14.872,-2.478 -22.11,0.531c-1.031,1.557 -1.565,3.391 -2.772,4.838" style="fill:none;fill-rule:nonzero;stroke:#646464;stroke-width:5.47px;stroke-linecap:round;"/><path d="M291.912,293.806c11.034,7.319 -7.291,17.075 3.737,24.157c6.2,5.1 9.682,13.593 5.485,21.896c2.656,6.11 5.144,12.9 -2.935,16.422c-6.34,8.728 10.882,14.094 7.829,22.638c4.618,7.644 8.171,-8.06 13.818,0.453c4.216,6.419 3.416,15.278 9.275,20.569c1.757,4.453 3.238,4.675 -0.312,9.765c2.825,7.938 -7.322,17.26 1.184,23.291c-2.759,7.384 -14.003,-1.097 -20,4.669c-9.956,-0.222 -20.619,-3.675 -29.609,2.643c-7.619,3.747 -10.594,-7.162 -18.538,-3.096c-5.815,-4.119 -14.231,-5.988 -19.256,-10.247c-4.247,7.762 -10.025,1.55 -7.278,-4.997c-11.766,-3.778 -26.45,-4.16 -39.503,-4.863c-27.072,-0.903 -54.135,-1.897 -81.197,-3.034c-8.966,5.778 -18.309,11.944 -28.828,14.359c-11.619,0.232 -24.21,-6.4 -35,0.925c-6.041,5.866 -14.397,1.822 -19.416,7.144" style="fill:none;fill-rule:nonzero;stroke:#646464;stroke-width:5.47px;stroke-linecap:round;"/><path d="M112.506,523.409c9.44,-6.571 14.722,-19.656 19.75,-29.325c5.372,-12.346 21.581,-5.031 29.4,-15.709c6.75,-2.709 21.962,5.819 24.772,-5.1c10.093,10.406 5.984,-22.894 7.793,-16.953c-4.356,-3.984 -18.309,-9.85 -6.9,-13.794c4.003,-3.069 10.766,3.163 12.528,-5.403c4.116,-7.344 -3.968,-13.241 -1.05,-19.972" style="fill:none;fill-rule:nonzero;stroke:#646464;stroke-width:5.47px;stroke-linecap:round;"/><path d="M329.124,437.188c-7.465,1.378 -6.696,29.678 -6.446,15.543c5.656,5.428 14.65,14.503 19.993,3.269c5.482,-13.156 19.278,-3.312 18.8,7.022c6.869,15.169 13.56,-9.741 23.269,-10.013c9.153,-6.24 19.281,3.504 27.872,6.807c10.278,8.253 11.553,-7.428 20.178,-8.057c6.269,-2.312 19.05,-4.193 9.953,-12.693c-0.022,-8.757 18.113,-2.097 21.872,3.49c1.203,5.247 -2.45,10.294 3.963,13.253c-4.366,8.082 10.053,9.322 4.459,18.26c-2.438,5.931 -4.713,13.665 4.241,13.39c1.018,9.75 12.631,10.094 17.159,16.644c-2.438,1.385 3.956,4.319 -2.047,4.997c-6.941,0.338 -13.631,11.581 -15.691,18.059c7.344,3.075 16.088,-12.153 21.419,-0.456c-0.015,10.753 -6.231,28.506 6.066,34.397c8.534,5.225 -2.578,2.178 9.99,5.981c1.738,4.6 -1.362,13.438 7.094,7.628c5.616,-4.59 7.422,-17.137 17.3,-13.318c7.41,-7.11 9.763,18.097 10.55,6.859c3.41,7.381 15.728,2.544 20.063,10.353c5.843,-3.065 -1.282,-14.415 9.837,-12.781c6.085,1.628 15.51,0.766 9.788,-7.625c-0.882,-5.228 3.225,-13.922 7.075,-5.747c5.24,4.653 11.728,0.953 8.49,-4.753c7.007,-6.453 16.135,0.225 10.01,7.762c4.028,4.1 3.809,11.063 -0.15,16.207c6.578,10.987 18.793,1.653 20.925,-5.982c5.525,-2.628 13.762,-5.506 19.74,-2.987" style="fill:none;fill-rule:nonzero;stroke:#646464;stroke-width:5.47px;stroke-linecap:round;"/><path d="M513.612,576.388c-0.972,5.209 -7.591,5.503 -9.844,9.759" style="fill:none;fill-rule:nonzero;stroke:#646464;stroke-width:5.47px;stroke-linecap:round;"/><path d="M503.74,586.147c1.022,9.347 -0.787,19.219 -1.272,29.416c4.16,11.653 17.366,4.396 15.51,6.765c-3.344,7.4 -6.057,14.375 4.112,17.253c2.081,4.382 -13.356,5.335 -10.481,14.15c-3.141,9.7 14.987,5.95 14.109,17.3c2.406,5.66 0.413,19.938 -6.278,9.422c-0.975,-6.034 -5.809,5.266 -8.347,-2.472c-7.656,-4.043 -20.778,-2.062 -17.169,9.291c-4.793,11.909 16.604,3.681 12.694,14.387c5.519,4.916 -7.319,1.4 -5.581,8.729c-2.15,7.853 -1.8,16.162 -8.744,22.712c-7.306,-6.85 -18.819,3.347 -20.922,-9.134c-10.731,-0.969 -5.05,14.465 -13.65,18.072c-1.762,5.268 -2.953,9.818 -9.234,7.581c-8.881,10.187 -10.409,-6.119 -17.509,-7.625c-3.979,-5.141 -14.679,4.509 -9.207,-3.581c8.613,-9.363 3.585,-21.025 2.31,-30.85c3.168,-7.329 -3.191,-2.96 -1.294,-9.857c-0.534,-6.387 -0.216,-5.103 -2.766,-6.672c3.016,-6.528 -1.259,-11.881 -7.453,-10.209c1.45,-4.128 0.525,-5.284 -3.553,-2.691c-1.578,-4.618 -1.862,-9.143 -6.219,-4.103c-7.112,0.3 -13.19,8.4 -15.268,-1.234c-8.125,2.741 -18.682,-0.931 -22.494,9.769c-3.1,4.29 -20.35,-0.65 -13.472,2.397c4.534,-7.813 6.991,-16.447 14.591,-21.719c-5.344,-6.169 -7.725,-14.31 -5.241,-22.253c-5.375,-1.978 -12.716,-5.169 -4.769,-10.416c3.919,-9.572 -11.094,-12.056 -10.29,-22.031c-5.166,-9.572 -11.841,-18.363 -18.757,-25.716c-12.284,-0.559 -24.875,-0.381 -37.29,-0.797c-5.857,14.5 -22.941,-1.765 -33.044,6.575c-4.984,10.963 -11.066,21.807 -18.266,31.178c-4.44,6.179 -13.687,2.46 -13.081,12.435c-3.994,10.037 -10.528,1.822 -13.6,4.522" style="fill:none;fill-rule:nonzero;stroke:#646464;stroke-width:5.47px;stroke-linecap:round;"/><path d="M302.496,769.119c10.153,-3.8 8.197,-20.491 20.538,-22.925c5.112,-10.513 18.928,-11.31 24.15,-21.653c5.659,-5.738 12.159,-10.372 9.506,-19.585c1.394,-12.775 21.556,-5.072 18.372,-19.768c-0.2,-3.763 3.134,-6.422 2.453,-10.254" style="fill:none;fill-rule:nonzero;stroke:#646464;stroke-width:5.47px;stroke-linecap:round;"/><path d="M1670.71,730.384c-11.203,8.547 2.556,14.247 -10.525,21.46c-5.741,5.406 -5.816,9.553 0.722,14.14c-0.169,9.619 -23.616,11.019 -16.81,24.829c-1.79,6.887 -10.103,8.706 -12.019,15.587c-9.384,5.594 -21.193,-0.181 -17.696,-11.834c-0.085,-8.785 -13.594,-5.738 -13.175,-15.678c-4.36,-3.191 -17.322,-10.797 -15.735,-9.888c0.506,12.519 -11.894,16.125 -21.584,11.572c-5.125,-14.856 -13.653,8.241 -23.328,6.834c-5.697,2.85 -3.082,16.638 -13.125,16.897c-8.891,6.55 -16.078,14.125 -23.847,21.55c-7.244,5.291 -11.297,13 -18.938,17.191c-0.115,5.322 -3.225,10.087 1.778,13.487c-4.968,10.857 -2.218,24.057 -10.89,33.141c-4.422,8.116 -12.778,16.303 -16.55,22.981" style="fill:none;fill-rule:nonzero;stroke:#646464;stroke-width:5.47px;stroke-linecap:round;"/><path d="M477.931,732.413c4.75,7.756 3.922,17.962 8.956,25.984c-1.366,9.516 0.022,21.184 -8.669,27.772c-4.447,4.384 -15.231,10.369 -3.806,13.259c5.416,-1.681 4.984,-2.512 4.734,4.181c6.785,4.291 16.225,6.779 24.938,5.538c8.797,0.819 9.256,18.034 7.784,13.312c2.381,3.132 4.497,11.429 11.135,9.622c5.309,5.844 15.131,2.825 11.034,12.763c5.791,7.915 -4.063,17.103 2.716,23.544c-2.916,3.153 -7.138,0.956 -5.972,8.237c-1.985,5.472 -7.897,7.15 -4.741,14.05c-4.509,9.556 0.631,25.453 -1.2,36.8l2.184,1.184l0.975,3.404" style="fill:none;fill-rule:nonzero;stroke:#646464;stroke-width:5.47px;stroke-linecap:round;"/><path d="M781.346,888.853c4.619,-8.875 27.766,7.113 22.072,-13.447c-3.103,-6.978 6.144,-7.009 1.51,-13.615c0.906,-8.669 -5.319,-10.728 -12.016,-10.544c0.075,-4.916 -5.938,-6.372 -2.806,-12.572c-3.532,-12.691 -8.269,-24.741 -11.097,-37.681c-1.044,-12.572 0.212,-24.219 8.581,-34.528c9.038,-4.394 6.166,-15.625 8.95,-23.747c0.909,-8.566 4.591,-16.397 9.4,-23.463c0.859,-9.609 14.328,-8.95 13.019,-18.962c10.359,-2.906 1.109,-18.269 2.165,-26.797c-1.628,-8.428 -1.556,-15.919 -6.14,-23.516c-12.416,-3.193 4.144,-12.325 -0.797,-18.472c1.778,-2.9 2.928,-6.337 1.309,-9.415" style="fill:none;fill-rule:nonzero;stroke:#646464;stroke-width:5.47px;stroke-linecap:round;"/><g transform="matrix(3.125,0,0,3.125,-4975.26,-3301.89)"><text x="1667px" y="1268.74px" style="font-family:'ArialRoundedMTBold', 'Arial Rounded MT Bold', sans-serif;font-size:12px;fill:#03c;">Sier<tspan x="1690.48px 1695.44px " y="1268.74px 1268.74px ">ra</tspan></text><rect x="1667" y="1269.94" width="35.572" height="0.598" style="fill:#03c;"/><text x="1667px" y="1280.74px" style="font-family:'ArialRoundedMTBold', 'Arial Rounded MT Bold', sans-serif;font-size:12px;fill:#03c;">Leone</text><rect x="1667" y="1281.94" width="36.006" height="0.598" style="fill:#03c;"/></g><g transform="matrix(3.125,0,0,3.125,-4036.81,-2845.17)"><text x="1667px" y="1268.74px" style="font-family:'ArialRoundedMTBold', 'Arial Rounded MT Bold', sans-serif;font-size:12px;fill:#03c;">So T<tspan x="1699.13px 1706.38px " y="1268.74px 1268.74px ">om</tspan> &amp;</text><rect x="1667" y="1269.94" width="69.24" height="0.598" style="fill:#03c;"/><text x="1667px" y="1280.74px" style="font-family:'ArialRoundedMTBold', 'Arial Rounded MT Bold', sans-serif;font-size:12px;fill:#03c;">Prncipe</text><rect x="1667" y="1281.94" width="48.773" height="0.598" style="fill:#03c;"/></g><text x="1476.21px" y="917.219px" style="font-family:'ArialRoundedMTBold', 'Arial Rounded MT Bold', sans-serif;font-size:34.375px;fill:#808080;">Camer<tspan x="1586.67px 1607.44px " y="917.219px 917.219px ">oo</tspan>n</text><g transform="matrix(3.125,0,0,3.125,-3900.53,-3284.28)"><text x="1667px" y="1268.74px" style="font-family:'ArialRoundedMTBold', 'Arial Rounded MT Bold', sans-serif;font-size:12px;fill:#03c;">Nig<tspan x="1686.57px 1693.7px " y="1268.74px 1268.74px ">er</tspan>ia</text><rect x="1667" y="1269.94" width="42.34" height="0.598" style="fill:#03c;"/></g><g transform="matrix(3.125,0,0,3.125,-4115.41,-3079.63)"><text x="1667px" y="1268.74px" style="font-family:'ArialRoundedMTBold', 'Arial Rounded MT Bold', sans-serif;font-size:12px;fill:#03c;">Benin</text><rect x="1667" y="1269.94" width="33.51" height="0.598" style="fill:#03c;"/></g><g transform="matrix(3.125,0,0,3.125,-4204.94,-3045.31)"><text x="1667px" y="1268.74px" style="font-family:'ArialRoundedMTBold', 'Arial Rounded MT Bold', sans-serif;font-size:12px;fill:#03c;">T<tspan x="1673.74px 1680.99px 1688.19px " y="1268.74px 1268.74px 1268.74px ">ogo</tspan></text><rect x="1667" y="1269.94" width="28.441" height="0.598" style="fill:#03c;"/></g><text x="335.673px" y="793.734px" style="font-family:'ArialRoundedMTBold', 'Arial Rounded MT Bold', sans-serif;font-size:37.5px;fill:#808080;">Liberia</text><g transform="matrix(3.125,0,0,3.125,-4361.06,-3171.07)"><text x="1667px" y="1268.74px" style="font-family:'ArialRoundedMTBold', 'Arial Rounded MT Bold', sans-serif;font-size:12px;fill:#03c;">Ghana</text><rect x="1667" y="1269.94" width="38.262" height="0.598" style="fill:#03c;"/></g><g transform="matrix(3.125,0,0,3.125,-4666.07,-3171.07)"><text x="1667px" y="1268.74px" style="font-family:'ArialRoundedMTBold', 'Arial Rounded MT Bold', sans-serif;font-size:12px;fill:#03c;">Cte d&apos;Iv<tspan x="1717.99px 1725.24px 1728.49px 1733.45px " y="1268.74px 1268.74px 1268.74px 1268.74px ">oire</tspan></text><rect x="1667" y="1269.94" width="73.582" height="0.598" style="fill:#03c;"/></g><g transform="matrix(3.125,0,0,3.125,-4970.55,-3856.27)"><text x="1667px" y="1268.74px" style="font-family:'ArialRoundedMTBold', 'Arial Rounded MT Bold', sans-serif;font-size:12px;fill:#03c;">Mauritania</text><rect x="1667" y="1269.94" width="61.893" height="0.598" style="fill:#03c;"/></g><g transform="matrix(3.125,0,0,3.125,-5140.17,-3649.98)"><text x="1667px" y="1268.74px" style="font-family:'ArialRoundedMTBold', 'Arial Rounded MT Bold', sans-serif;font-size:12px;fill:#03c;">Sene<tspan x="1696.36px 1703.56px 1710.69px " y="1268.74px 1268.74px 1268.74px ">gal</tspan></text><rect x="1667" y="1269.94" width="46.939" height="0.598" style="fill:#03c;"/></g><g transform="matrix(3.125,0,0,3.125,-4983.47,-3423.94)"><text x="1667px" y="1268.74px" style="font-family:'ArialRoundedMTBold', 'Arial Rounded MT Bold', sans-serif;font-size:12px;fill:#03c;">Guinee</text><rect x="1667" y="1269.94" width="41.514" height="0.598" style="fill:#03c;"/></g><text x="766.561px" y="465.949px" style="font-family:'ArialRoundedMTBold', 'Arial Rounded MT Bold', sans-serif;font-size:37.5px;fill:#808080;">Bur<tspan x="831.673px 852.236px 862.398px " y="465.949px 465.949px 465.949px ">kin</tspan>a F<tspan x="938.424px 960.708px " y="465.949px 465.949px ">as</tspan>o</text><text x="483.27px" y="369.874px" style="font-family:'ArialRoundedMTBold', 'Arial Rounded MT Bold', sans-serif;font-size:37.5px;fill:#808080;">Mali</text><text x="1335.59px" y="298.698px" style="font-family:'ArialRoundedMTBold', 'Arial Rounded MT Bold', sans-serif;font-size:37.5px;fill:#808080;">Nig<tspan x="1396.75px 1419.03px " y="298.698px 298.698px ">er</tspan></text></svg>